<?xml version="1.0" encoding="utf-8"?>
<!-- Generator: Adobe Illustrator 25.3.1, SVG Export Plug-In . SVG Version: 6.00 Build 0)  -->
<svg version="1.1" id="OBJECTS" xmlns="http://www.w3.org/2000/svg" xmlns:xlink="http://www.w3.org/1999/xlink" x="0px" y="0px"
	 viewBox="0 0 322.33 231.32" style="enable-background:new 0 0 322.33 231.32;" xml:space="preserve">
<style type="text/css">
	.st0{fill:url(#SVGID_1_);}
	.st1{fill:url(#SVGID_2_);}
	.st2{fill:url(#SVGID_3_);}
	.st3{opacity:0.66;fill:url(#SVGID_4_);}
	.st4{opacity:0.66;fill:url(#SVGID_5_);}
	.st5{opacity:0.66;fill:url(#SVGID_6_);}
	.st6{opacity:0.8;fill:url(#SVGID_7_);}
	.st7{opacity:0.8;fill:url(#SVGID_8_);}
	.st8{opacity:0.8;fill:url(#SVGID_9_);}
	.st9{fill:#FF00CC;}
	.st10{fill:url(#SVGID_10_);}
	.st11{fill:url(#SVGID_11_);}
	.st12{fill:url(#SVGID_12_);}
	.st13{opacity:0.66;fill:url(#SVGID_13_);}
	.st14{opacity:0.66;fill:url(#SVGID_14_);}
	.st15{opacity:0.66;fill:url(#SVGID_15_);}
	.st16{opacity:0.8;fill:url(#SVGID_16_);}
	.st17{opacity:0.8;fill:url(#SVGID_17_);}
	.st18{opacity:0.8;fill:url(#SVGID_18_);}
	.st19{fill:url(#SVGID_19_);}
	.st20{fill:url(#SVGID_20_);}
	.st21{fill:url(#SVGID_21_);}
	.st22{opacity:0.66;fill:url(#SVGID_22_);}
	.st23{opacity:0.66;fill:url(#SVGID_23_);}
	.st24{opacity:0.66;fill:url(#SVGID_24_);}
	.st25{opacity:0.8;fill:url(#SVGID_25_);}
	.st26{opacity:0.8;fill:url(#SVGID_26_);}
	.st27{opacity:0.8;fill:url(#SVGID_27_);}
	.st28{fill:url(#SVGID_28_);}
	.st29{fill:url(#SVGID_29_);}
	.st30{fill:url(#SVGID_30_);}
	.st31{opacity:0.66;fill:url(#SVGID_31_);}
	.st32{opacity:0.66;fill:url(#SVGID_32_);}
	.st33{opacity:0.66;fill:url(#SVGID_33_);}
	.st34{opacity:0.8;fill:url(#SVGID_34_);}
	.st35{opacity:0.8;fill:url(#SVGID_35_);}
	.st36{opacity:0.8;fill:url(#SVGID_36_);}
	.st37{fill:url(#SVGID_37_);}
	.st38{fill:url(#SVGID_38_);}
	.st39{fill:url(#SVGID_39_);}
	.st40{opacity:0.66;fill:url(#SVGID_40_);}
	.st41{opacity:0.66;fill:url(#SVGID_41_);}
	.st42{opacity:0.66;fill:url(#SVGID_42_);}
	.st43{opacity:0.8;fill:url(#SVGID_43_);}
	.st44{opacity:0.8;fill:url(#SVGID_44_);}
	.st45{opacity:0.8;fill:url(#SVGID_45_);}
</style>
<g>
	<linearGradient id="SVGID_1_" gradientUnits="userSpaceOnUse" x1="36.1576" y1="113.0434" x2="286.17" y2="113.0434">
		<stop  offset="0" style="stop-color:#FF00CC"/>
		<stop  offset="0.9987" style="stop-color:#4E00BB"/>
	</linearGradient>
	<path class="st0" d="M285.97,107.68c-1.36-17.91-9.61-34.22-23.23-45.92c-13.62-11.7-30.98-17.4-48.9-16.04
		c-15.34,1.16-29.49,7.39-40.59,17.71c3.92,5.47,7.16,11.38,9.68,17.6c8.32-9.44,19.78-15.17,32.36-16.12
		c12.78-0.97,25.18,3.1,34.9,11.45c9.72,8.35,15.61,19.99,16.58,32.78c0.97,12.78-3.1,25.18-11.45,34.9
		c-8.35,9.72-19.99,15.61-32.78,16.58c-26.4,2-49.49-17.84-51.49-44.23l-0.62-8.15c-1.36-17.91-9.61-34.22-23.23-45.92
		c-13.62-11.7-31-17.4-48.9-16.04C80.41,47.63,64.1,55.88,52.4,69.51c-11.7,13.62-17.4,30.99-16.04,48.9
		c1.36,17.91,9.61,34.22,23.23,45.92c12.3,10.57,27.66,16.24,43.71,16.24c1.72,0,3.45-0.07,5.19-0.2
		c15.35-1.16,29.52-7.41,40.63-17.74c-3.88-5.41-7.15-11.3-9.71-17.58c-8.32,9.46-19.79,15.19-32.38,16.14
		c-12.78,0.97-25.18-3.1-34.9-11.45c-9.72-8.35-15.61-19.99-16.58-32.78c-0.97-12.78,3.1-25.18,11.45-34.9
		c8.35-9.72,19.99-15.61,32.78-16.58c12.79-0.97,25.18,3.1,34.9,11.45c9.72,8.35,15.61,19.99,16.58,32.78l0.62,8.15
		c2.67,35.25,32.21,62.16,67,62.16c1.7,0,3.41-0.06,5.13-0.19c17.91-1.36,34.22-9.61,45.92-23.23
		C281.63,142.96,287.33,125.59,285.97,107.68z"/>
	<linearGradient id="SVGID_2_" gradientUnits="userSpaceOnUse" x1="36.1575" y1="115.6596" x2="286.17" y2="115.6596">
		<stop  offset="0" style="stop-color:#FF00CC"/>
		<stop  offset="0.9987" style="stop-color:#4E00BB"/>
	</linearGradient>
	<path class="st1" d="M269.93,156.58c11.7-13.62,17.4-30.99,16.04-48.9c-1.36-17.91-9.61-34.22-23.23-45.92
		c-13.62-11.7-30.98-17.4-48.9-16.04c-15.34,1.16-29.49,7.39-40.59,17.71c3.93,5.47,7.16,11.38,9.68,17.6
		c8.32-9.44,19.78-15.17,32.36-16.12c12.78-0.97,25.18,3.1,34.9,11.45c9.72,8.35,15.61,19.99,16.58,32.78
		c0.97,12.78-3.1,25.18-11.45,34.9c-8.35,9.72-19.99,15.61-32.78,16.58c-26.41,2-49.49-17.84-51.49-44.23l-0.62-8.15
		c-1.36-17.91-9.61-34.22-23.23-45.92c-13.62-11.7-31-17.4-48.9-16.04C80.41,47.63,64.1,55.88,52.4,69.51
		c-11.7,13.62-17.4,30.99-16.04,48.9c1.13,14.87,7.02,28.62,16.77,39.56L36.16,185.8l44.59-9.14c7.18,2.57,14.78,3.91,22.55,3.91
		c1.72,0,3.45-0.07,5.19-0.2c15.35-1.16,29.52-7.41,40.63-17.75c-3.88-5.41-7.15-11.3-9.71-17.58
		c-8.32,9.46-19.79,15.19-32.38,16.14c-12.78,0.97-25.18-3.1-34.9-11.45c-9.72-8.35-15.61-19.99-16.58-32.78
		c-0.97-12.78,3.1-25.18,11.45-34.9c8.35-9.72,19.99-15.61,32.78-16.58c12.79-0.97,25.18,3.1,34.9,11.45
		c9.72,8.35,15.61,19.99,16.58,32.78l0.62,8.15c2.67,35.25,32.21,62.16,67,62.16c1.7,0,3.41-0.06,5.13-0.19
		c5.81-0.44,11.44-1.62,16.81-3.46l45.35,9.45l-17.03-28.35C269.4,157.16,269.67,156.88,269.93,156.58z"/>
	<linearGradient id="SVGID_3_" gradientUnits="userSpaceOnUse" x1="36.1576" y1="115.9391" x2="276.5457" y2="115.9391">
		<stop  offset="0" style="stop-color:#FF00CC"/>
		<stop  offset="0.9987" style="stop-color:#4E00BB"/>
	</linearGradient>
	<path class="st2" d="M276.38,108.41c-2.41-31.73-30.08-55.5-61.81-53.1c-14.15,1.07-26.7,7.18-36.07,16.42
		c1.66,3.01,3.15,6.11,4.44,9.3c8.32-9.44,19.78-15.17,32.36-16.12c12.78-0.97,25.18,3.1,34.9,11.45
		c9.72,8.35,15.61,19.99,16.58,32.78c0.97,12.78-3.1,25.18-11.45,34.9c-8.35,9.72-19.99,15.61-32.78,16.58
		c-26.41,2-49.49-17.84-51.49-44.23l-0.62-8.15c-1.36-17.91-9.61-34.22-23.23-45.92c-13.62-11.7-31-17.4-48.9-16.04
		C80.41,47.63,64.1,55.88,52.4,69.51c-11.7,13.62-17.4,30.99-16.04,48.9c1.13,14.87,7.02,28.62,16.77,39.56L36.16,185.8l44.59-9.14
		c7.18,2.57,14.78,3.91,22.55,3.91c1.72,0,3.45-0.07,5.19-0.2c15.35-1.16,29.52-7.41,40.63-17.75c-1.9-2.65-3.65-5.43-5.25-8.3
		c-9.37,9.26-21.94,15.38-36.11,16.45c-31.73,2.41-59.4-21.37-61.81-53.1c-2.41-31.73,21.37-59.4,53.1-61.81
		c31.73-2.41,59.4,21.37,61.81,53.1l0.62,8.15c2.41,31.73,30.08,55.5,61.81,53.1C255.01,167.81,278.78,140.14,276.38,108.41z"/>
	<linearGradient id="SVGID_4_" gradientUnits="userSpaceOnUse" x1="45.6375" y1="86.7744" x2="99.0473" y2="86.7744">
		<stop  offset="0" style="stop-color:#000000"/>
		<stop  offset="0.5801" style="stop-color:#FFFFFF"/>
		<stop  offset="1" style="stop-color:#000000"/>
	</linearGradient>
	<path class="st3" d="M45.95,117.68c-2.94-27.4,15.21-53.34,41.89-60.15c1.86-0.37,3.71-0.78,5.57-1.11l5.64-0.54
		c-7.5,0.85-14.81,3.01-21.43,6.48C57.39,72.62,44.75,95.07,45.95,117.68L45.95,117.68z"/>
	<linearGradient id="SVGID_5_" gradientUnits="userSpaceOnUse" x1="160.8395" y1="135.9037" x2="190.4142" y2="135.9037">
		<stop  offset="0" style="stop-color:#000000"/>
		<stop  offset="0.5801" style="stop-color:#FFFFFF"/>
		<stop  offset="1" style="stop-color:#000000"/>
	</linearGradient>
	<path class="st4" d="M160.85,108.97c0.71,5.31,0.99,10.69,2.25,15.91c3.02,12.99,10.45,24.85,20.81,33.23
		c2.03,1.75,4.27,3.23,6.5,4.74c-2.38-1.25-4.69-2.65-6.88-4.24C167.09,146.5,160.48,128.93,160.85,108.97L160.85,108.97z"/>
	<linearGradient id="SVGID_6_" gradientUnits="userSpaceOnUse" x1="178.4972" y1="63.5188" x2="214.5704" y2="63.5188">
		<stop  offset="0" style="stop-color:#000000"/>
		<stop  offset="0.5801" style="stop-color:#FFFFFF"/>
		<stop  offset="1" style="stop-color:#000000"/>
	</linearGradient>
	<path class="st5" d="M214.57,55.31c-11.62,1.67-22.78,6.15-32.12,13.27c-1.18,0.88-2.83,2.22-3.95,3.15
		C187.49,61.54,200.98,55.38,214.57,55.31L214.57,55.31z"/>
	<linearGradient id="SVGID_7_" gradientUnits="userSpaceOnUse" x1="64.7773" y1="163.8427" x2="64.7773" y2="65.12">
		<stop  offset="0" style="stop-color:#FFFFFF"/>
		<stop  offset="0.0943" style="stop-color:#DADAF9"/>
		<stop  offset="0.3029" style="stop-color:#7E7EE9"/>
		<stop  offset="0.449" style="stop-color:#3A3ADE"/>
		<stop  offset="0.6173" style="stop-color:#7777E8"/>
		<stop  offset="1" style="stop-color:#FFFFFF"/>
	</linearGradient>
	<path class="st6" d="M83.77,157.14c-4.16-1.87-8.09-4.35-11.65-7.41c-9.72-8.35-15.61-19.99-16.58-32.78
		c-0.97-12.78,3.1-25.18,11.45-34.9c4.06-4.73,8.91-8.54,14.28-11.33c-0.6-0.51-1.22-1.01-1.86-1.48c-2.33-1.69-4.89-3.06-7.58-4.12
		c-16.96,11.13-27.53,30.9-25.89,52.56c1.53,20.17,13.27,37.1,29.76,46.16C78.81,162.15,81.49,159.84,83.77,157.14z"/>
	<linearGradient id="SVGID_8_" gradientUnits="userSpaceOnUse" x1="164.827" y1="140.8976" x2="223.6825" y2="176.0628">
		<stop  offset="0" style="stop-color:#FFFFFF"/>
		<stop  offset="0.0943" style="stop-color:#DADAF9"/>
		<stop  offset="0.3029" style="stop-color:#7E7EE9"/>
		<stop  offset="0.449" style="stop-color:#3A3ADE"/>
		<stop  offset="0.6173" style="stop-color:#7777E8"/>
		<stop  offset="1" style="stop-color:#FFFFFF"/>
	</linearGradient>
	<path class="st7" d="M223.28,170.22c-28.31,2.15-53.38-16.56-60.16-43.15c-2.89,2.56-5.37,5.58-7.23,9.1
		c9.6,25.84,34.53,43.84,62.99,43.84c1.7,0,3.41-0.06,5.13-0.19c3.08-0.23,6.12-0.68,9.09-1.32c0.74-1.39,1.45-2.8,2.12-4.21
		c1.13-2.37,2.21-4.8,3.15-7.28C233.62,168.7,228.56,169.82,223.28,170.22z"/>
	<linearGradient id="SVGID_9_" gradientUnits="userSpaceOnUse" x1="115.4755" y1="62.1991" x2="142.265" y2="81.9387">
		<stop  offset="0" style="stop-color:#FFFFFF"/>
		<stop  offset="0.0943" style="stop-color:#DADAF9"/>
		<stop  offset="0.3029" style="stop-color:#7E7EE9"/>
		<stop  offset="0.449" style="stop-color:#3A3ADE"/>
		<stop  offset="0.6173" style="stop-color:#7777E8"/>
		<stop  offset="1" style="stop-color:#FFFFFF"/>
	</linearGradient>
	<path class="st8" d="M106.94,55.82c-1.27,2.97-2.25,6.06-2.82,9.26c-0.01,0.08-0.02,0.17-0.04,0.25
		c11.24,0.14,21.97,4.17,30.59,11.58c5.05,4.34,9.06,9.58,11.89,15.39c0.37-0.27,0.75-0.53,1.11-0.82c2.28-1.81,4.28-3.95,6.01-6.29
		C144.3,68.43,126.84,57.02,106.94,55.82z"/>
</g>
</svg>
