<?xml version="1.0" encoding="utf-8"?>
<!-- Generator: Adobe Illustrator 25.3.1, SVG Export Plug-In . SVG Version: 6.00 Build 0)  -->
<svg version="1.1" id="OBJECTS" xmlns="http://www.w3.org/2000/svg" xmlns:xlink="http://www.w3.org/1999/xlink" x="0px" y="0px"
	 viewBox="0 0 674.04 170.61" style="enable-background:new 0 0 674.04 170.61;" xml:space="preserve">
<style type="text/css">
	.st0{fill:url(#SVGID_1_);}
	.st1{fill:url(#SVGID_2_);}
	.st2{fill:url(#SVGID_3_);}
	.st3{opacity:0.66;fill:url(#SVGID_4_);}
	.st4{opacity:0.66;fill:url(#SVGID_5_);}
	.st5{opacity:0.66;fill:url(#SVGID_6_);}
	.st6{opacity:0.8;fill:url(#SVGID_7_);}
	.st7{opacity:0.8;fill:url(#SVGID_8_);}
	.st8{opacity:0.8;fill:url(#SVGID_9_);}
	.st9{fill:#FF00CC;}
	.st10{fill:url(#SVGID_10_);}
	.st11{fill:url(#SVGID_11_);}
	.st12{fill:url(#SVGID_12_);}
	.st13{opacity:0.66;fill:url(#SVGID_13_);}
	.st14{opacity:0.66;fill:url(#SVGID_14_);}
	.st15{opacity:0.66;fill:url(#SVGID_15_);}
	.st16{opacity:0.8;fill:url(#SVGID_16_);}
	.st17{opacity:0.8;fill:url(#SVGID_17_);}
	.st18{opacity:0.8;fill:url(#SVGID_18_);}
	.st19{fill:url(#SVGID_19_);}
	.st20{fill:url(#SVGID_20_);}
	.st21{fill:url(#SVGID_21_);}
	.st22{opacity:0.66;fill:url(#SVGID_22_);}
	.st23{opacity:0.66;fill:url(#SVGID_23_);}
	.st24{opacity:0.66;fill:url(#SVGID_24_);}
	.st25{opacity:0.8;fill:url(#SVGID_25_);}
	.st26{opacity:0.8;fill:url(#SVGID_26_);}
	.st27{opacity:0.8;fill:url(#SVGID_27_);}
	.st28{fill:url(#SVGID_28_);}
	.st29{fill:url(#SVGID_29_);}
	.st30{fill:url(#SVGID_30_);}
	.st31{opacity:0.66;fill:url(#SVGID_31_);}
	.st32{opacity:0.66;fill:url(#SVGID_32_);}
	.st33{opacity:0.66;fill:url(#SVGID_33_);}
	.st34{opacity:0.8;fill:url(#SVGID_34_);}
	.st35{opacity:0.8;fill:url(#SVGID_35_);}
	.st36{opacity:0.8;fill:url(#SVGID_36_);}
	.st37{fill:url(#SVGID_37_);}
	.st38{fill:url(#SVGID_38_);}
	.st39{fill:url(#SVGID_39_);}
	.st40{opacity:0.66;fill:url(#SVGID_40_);}
	.st41{opacity:0.66;fill:url(#SVGID_41_);}
	.st42{opacity:0.66;fill:url(#SVGID_42_);}
	.st43{opacity:0.8;fill:url(#SVGID_43_);}
	.st44{opacity:0.8;fill:url(#SVGID_44_);}
	.st45{opacity:0.8;fill:url(#SVGID_45_);}
</style>
<g>
	<linearGradient id="SVGID_1_" gradientUnits="userSpaceOnUse" x1="56.6663" y1="87.6669" x2="219.1149" y2="87.6669">
		<stop  offset="0" style="stop-color:#FF00CC"/>
		<stop  offset="0.9987" style="stop-color:#4E00BB"/>
	</linearGradient>
	<path class="st0" d="M218.99,84.18c-0.88-11.64-6.24-22.23-15.09-29.84c-8.85-7.6-20.13-11.3-31.77-10.42
		c-9.96,0.76-19.16,4.8-26.37,11.51c2.55,3.56,4.66,7.39,6.29,11.44c5.41-6.14,12.85-9.85,21.03-10.47
		c8.3-0.63,16.36,2.01,22.68,7.44c6.32,5.43,10.15,12.99,10.77,21.3c0.63,8.31-2.01,16.36-7.44,22.68
		c-5.43,6.32-12.99,10.14-21.3,10.77c-17.16,1.3-32.15-11.59-33.45-28.74l-0.4-5.3c-0.88-11.64-6.24-22.23-15.09-29.84
		c-8.85-7.6-20.14-11.31-31.77-10.43c-11.64,0.88-22.23,6.24-29.84,15.09c-7.6,8.85-11.31,20.14-10.42,31.77
		c0.88,11.64,6.24,22.23,15.09,29.84c7.99,6.87,17.97,10.55,28.4,10.55c1.12,0,2.24-0.04,3.37-0.13c9.98-0.76,19.18-4.81,26.4-11.53
		c-2.52-3.52-4.65-7.35-6.31-11.43c-5.41,6.14-12.86,9.87-21.04,10.49c-8.3,0.63-16.36-2.01-22.68-7.44
		c-6.32-5.43-10.14-12.99-10.77-21.3c-0.63-8.31,2.01-16.36,7.44-22.68C82.13,61.21,89.7,57.38,98,56.75
		c8.31-0.63,16.36,2.01,22.68,7.44c6.32,5.43,10.14,12.99,10.77,21.3l0.4,5.3c1.74,22.9,20.93,40.39,43.53,40.39
		c1.1,0,2.22-0.04,3.33-0.13c11.64-0.88,22.23-6.24,29.84-15.09C216.17,107.1,219.87,95.82,218.99,84.18z"/>
	<linearGradient id="SVGID_2_" gradientUnits="userSpaceOnUse" x1="56.6662" y1="89.3668" x2="219.1149" y2="89.3668">
		<stop  offset="0" style="stop-color:#FF00CC"/>
		<stop  offset="0.9987" style="stop-color:#4E00BB"/>
	</linearGradient>
	<path class="st1" d="M208.56,115.96c7.6-8.85,11.31-20.14,10.42-31.77c-0.88-11.64-6.24-22.23-15.09-29.84
		c-8.85-7.6-20.13-11.3-31.77-10.43c-9.96,0.76-19.16,4.8-26.37,11.51c2.55,3.56,4.66,7.39,6.29,11.44
		c5.41-6.14,12.85-9.85,21.03-10.47c8.3-0.63,16.36,2.01,22.68,7.44c6.32,5.43,10.15,12.99,10.77,21.3
		c0.63,8.31-2.01,16.36-7.44,22.68c-5.43,6.32-12.99,10.14-21.3,10.77c-17.16,1.3-32.15-11.59-33.45-28.74l-0.4-5.3
		c-0.88-11.64-6.24-22.23-15.09-29.84c-8.85-7.6-20.14-11.31-31.77-10.42c-11.64,0.88-22.23,6.24-29.84,15.09
		c-7.6,8.85-11.31,20.14-10.42,31.77c0.73,9.66,4.56,18.6,10.9,25.7l-11.03,18.09L85.64,129c4.66,1.67,9.6,2.54,14.65,2.54
		c1.12,0,2.24-0.04,3.37-0.13c9.98-0.76,19.18-4.81,26.4-11.53c-2.52-3.52-4.65-7.35-6.31-11.43c-5.41,6.14-12.86,9.87-21.04,10.49
		c-8.3,0.63-16.36-2.01-22.68-7.44c-6.32-5.43-10.14-12.99-10.77-21.3c-0.63-8.31,2.01-16.36,7.44-22.68
		C82.13,61.21,89.7,57.38,98,56.75c8.31-0.63,16.36,2.01,22.68,7.44c6.32,5.43,10.14,12.99,10.77,21.3l0.4,5.3
		c1.74,22.9,20.93,40.39,43.53,40.39c1.1,0,2.22-0.04,3.33-0.13c3.77-0.29,7.44-1.05,10.93-2.25l29.47,6.14l-11.06-18.42
		C208.22,116.33,208.4,116.15,208.56,115.96z"/>
	<linearGradient id="SVGID_3_" gradientUnits="userSpaceOnUse" x1="56.6663" y1="89.5485" x2="212.8614" y2="89.5485">
		<stop  offset="0" style="stop-color:#FF00CC"/>
		<stop  offset="0.9987" style="stop-color:#4E00BB"/>
	</linearGradient>
	<path class="st2" d="M212.75,84.66c-1.56-20.62-19.54-36.06-40.16-34.5c-9.19,0.7-17.35,4.66-23.44,10.67
		c1.08,1.95,2.05,3.97,2.89,6.04c5.41-6.14,12.85-9.85,21.03-10.47c8.3-0.63,16.36,2.01,22.68,7.44
		c6.32,5.43,10.14,12.99,10.77,21.3c0.63,8.31-2.01,16.36-7.44,22.68c-5.43,6.32-12.99,10.14-21.3,10.77
		c-17.16,1.3-32.15-11.59-33.45-28.74l-0.4-5.3c-0.88-11.64-6.24-22.23-15.09-29.84c-8.85-7.6-20.14-11.31-31.77-10.43
		c-11.64,0.88-22.23,6.24-29.84,15.09c-7.6,8.85-11.31,20.14-10.42,31.77c0.73,9.66,4.56,18.6,10.9,25.7l-11.03,18.09L85.64,129
		c4.66,1.67,9.6,2.54,14.65,2.54c1.12,0,2.24-0.04,3.37-0.13c9.98-0.76,19.18-4.81,26.4-11.53c-1.24-1.72-2.37-3.53-3.41-5.39
		c-6.09,6.02-14.26,9.99-23.46,10.69c-20.62,1.56-38.6-13.88-40.16-34.5c-1.56-20.62,13.88-38.6,34.5-40.16
		c20.62-1.56,38.6,13.88,40.16,34.5l0.4,5.3c1.56,20.62,19.54,36.06,40.16,34.5C198.87,123.25,214.32,105.27,212.75,84.66z"/>
	<linearGradient id="SVGID_4_" gradientUnits="userSpaceOnUse" x1="62.8259" y1="70.5983" x2="97.5296" y2="70.5983">
		<stop  offset="0" style="stop-color:#000000"/>
		<stop  offset="0.5801" style="stop-color:#FFFFFF"/>
		<stop  offset="1" style="stop-color:#000000"/>
	</linearGradient>
	<path class="st3" d="M63.03,90.68c-1.91-17.81,9.88-34.66,27.22-39.08c1.21-0.24,2.41-0.51,3.62-0.72l3.66-0.35
		c-4.87,0.55-9.62,1.96-13.92,4.21C70.46,61.4,62.25,75.99,63.03,90.68L63.03,90.68z"/>
	<linearGradient id="SVGID_5_" gradientUnits="userSpaceOnUse" x1="137.6799" y1="102.5207" x2="156.8964" y2="102.5207">
		<stop  offset="0" style="stop-color:#000000"/>
		<stop  offset="0.5801" style="stop-color:#FFFFFF"/>
		<stop  offset="1" style="stop-color:#000000"/>
	</linearGradient>
	<path class="st4" d="M137.69,85.02c0.46,3.45,0.64,6.95,1.46,10.34c1.96,8.44,6.79,16.14,13.52,21.59c1.32,1.14,2.78,2.1,4.22,3.08
		c-1.55-0.81-3.05-1.72-4.47-2.75C141.74,109.41,137.44,97.99,137.69,85.02L137.69,85.02z"/>
	<linearGradient id="SVGID_6_" gradientUnits="userSpaceOnUse" x1="149.1532" y1="55.4877" x2="172.5922" y2="55.4877">
		<stop  offset="0" style="stop-color:#000000"/>
		<stop  offset="0.5801" style="stop-color:#FFFFFF"/>
		<stop  offset="1" style="stop-color:#000000"/>
	</linearGradient>
	<path class="st5" d="M172.59,50.15c-7.55,1.09-14.8,4-20.87,8.62c-0.77,0.57-1.84,1.44-2.57,2.04
		C155,54.2,163.76,50.2,172.59,50.15L172.59,50.15z"/>
	<linearGradient id="SVGID_7_" gradientUnits="userSpaceOnUse" x1="75.2623" y1="120.6744" x2="75.2623" y2="56.5281">
		<stop  offset="0" style="stop-color:#FFFFFF"/>
		<stop  offset="0.0943" style="stop-color:#DADAF9"/>
		<stop  offset="0.3029" style="stop-color:#7E7EE9"/>
		<stop  offset="0.449" style="stop-color:#3A3ADE"/>
		<stop  offset="0.6173" style="stop-color:#7777E8"/>
		<stop  offset="1" style="stop-color:#FFFFFF"/>
	</linearGradient>
	<path class="st6" d="M87.6,116.32c-2.71-1.22-5.25-2.83-7.57-4.81c-6.32-5.43-10.14-12.99-10.77-21.3
		c-0.63-8.31,2.01-16.36,7.44-22.68c2.64-3.07,5.79-5.55,9.28-7.36c-0.39-0.33-0.79-0.66-1.21-0.96c-1.51-1.1-3.18-1.99-4.93-2.68
		C68.83,63.76,61.96,76.6,63.03,90.68c0.99,13.1,8.62,24.11,19.34,30C84.38,119.57,86.12,118.07,87.6,116.32z"/>
	<linearGradient id="SVGID_8_" gradientUnits="userSpaceOnUse" x1="140.2708" y1="105.7655" x2="178.5129" y2="128.6146">
		<stop  offset="0" style="stop-color:#FFFFFF"/>
		<stop  offset="0.0943" style="stop-color:#DADAF9"/>
		<stop  offset="0.3029" style="stop-color:#7E7EE9"/>
		<stop  offset="0.449" style="stop-color:#3A3ADE"/>
		<stop  offset="0.6173" style="stop-color:#7777E8"/>
		<stop  offset="1" style="stop-color:#FFFFFF"/>
	</linearGradient>
	<path class="st7" d="M178.25,124.82c-18.4,1.39-34.68-10.76-39.09-28.04c-1.88,1.66-3.49,3.63-4.7,5.91
		c6.24,16.79,22.44,28.49,40.93,28.49c1.1,0,2.22-0.04,3.33-0.13c2-0.15,3.98-0.44,5.91-0.86c0.48-0.9,0.94-1.82,1.38-2.73
		c0.74-1.54,1.44-3.12,2.05-4.73C184.97,123.83,181.68,124.56,178.25,124.82z"/>
	<linearGradient id="SVGID_9_" gradientUnits="userSpaceOnUse" x1="108.204" y1="54.6302" x2="125.6108" y2="67.4563">
		<stop  offset="0" style="stop-color:#FFFFFF"/>
		<stop  offset="0.0943" style="stop-color:#DADAF9"/>
		<stop  offset="0.3029" style="stop-color:#7E7EE9"/>
		<stop  offset="0.449" style="stop-color:#3A3ADE"/>
		<stop  offset="0.6173" style="stop-color:#7777E8"/>
		<stop  offset="1" style="stop-color:#FFFFFF"/>
	</linearGradient>
	<path class="st8" d="M102.66,50.49c-0.83,1.93-1.46,3.94-1.83,6.02c-0.01,0.05-0.02,0.11-0.02,0.17c7.3,0.09,14.27,2.71,19.88,7.52
		c3.28,2.82,5.89,6.22,7.73,10c0.24-0.18,0.49-0.34,0.72-0.53c1.48-1.18,2.78-2.57,3.9-4.09C126.93,58.68,115.59,51.27,102.66,50.49
		z"/>
</g>
<g>
	<g>
		<path class="st9" d="M265.24,76.89h-14.62V63.84h46.05v13.05h-14.61v36.86h-16.83V76.89z"/>
		<path class="st9" d="M332.54,105.05h-18.96l-3.35,8.7h-17.11l21.81-49.91h16.54l21.82,49.91h-17.4L332.54,105.05z M327.9,92.93
			l-4.85-12.55l-4.85,12.55H327.9z"/>
		<path class="st9" d="M355.99,63.84h16.83v36.86h22.53v13.05h-39.35V63.84z"/>
		<path class="st9" d="M420.3,97.21l-3.78,4.21v12.33h-16.54V63.84h16.54v18.11l16.4-18.11h18.32L431.28,85.8l20.96,27.95h-19.46
			L420.3,97.21z"/>
		<path class="st9" d="M503.71,63.84v49.91h-16.83V95.36h-15.54v18.39h-16.83V63.84h16.83v17.68h15.54V63.84H503.71z"/>
		<path class="st9" d="M517.83,108.69c-4.28-4.13-6.42-9.93-6.42-17.4V63.84h16.83v26.95c0,3.66,0.65,6.32,1.96,7.98
			c1.31,1.66,3.2,2.5,5.67,2.5c2.47,0,4.36-0.83,5.67-2.5c1.31-1.66,1.96-4.32,1.96-7.98V63.84h16.54v27.45
			c0,7.46-2.14,13.26-6.42,17.4c-4.28,4.14-10.24,6.2-17.89,6.2C528.07,114.89,522.1,112.82,517.83,108.69z"/>
		<path class="st9" d="M614.5,92.43c1.61,2.09,2.42,4.61,2.42,7.56c0,4.37-1.81,7.76-5.42,10.16c-3.61,2.4-8.84,3.6-15.68,3.6
			h-28.09V63.84h26.66c6.65,0,11.68,1.19,15.08,3.57c3.4,2.38,5.1,5.54,5.1,9.48c0,2.33-0.58,4.42-1.75,6.27
			c-1.17,1.85-2.89,3.35-5.17,4.49C610.6,88.75,612.88,90.34,614.5,92.43z M584.27,75.61v7.41h7.84c3.66,0,5.49-1.24,5.49-3.71
			c0-2.47-1.83-3.71-5.49-3.71H584.27z M599.95,98.06c0-2.61-1.85-3.92-5.56-3.92h-10.12v7.84h10.12
			C598.1,101.99,599.95,100.68,599.95,98.06z"/>
	</g>
</g>
</svg>
