<?xml version="1.0" encoding="utf-8"?>
<!-- Generator: Adobe Illustrator 25.3.1, SVG Export Plug-In . SVG Version: 6.00 Build 0)  -->
<svg version="1.1" id="OBJECTS" xmlns="http://www.w3.org/2000/svg" xmlns:xlink="http://www.w3.org/1999/xlink" x="0px" y="0px"
	 viewBox="0 0 500 130.08" style="enable-background:new 0 0 500 130.08;" xml:space="preserve">
<style type="text/css">
	.st0{fill:url(#SVGID_1_);}
	.st1{fill:url(#SVGID_2_);}
	.st2{fill:url(#SVGID_3_);}
	.st3{opacity:0.66;fill:url(#SVGID_4_);}
	.st4{opacity:0.66;fill:url(#SVGID_5_);}
	.st5{opacity:0.66;fill:url(#SVGID_6_);}
	.st6{opacity:0.8;fill:url(#SVGID_7_);}
	.st7{opacity:0.8;fill:url(#SVGID_8_);}
	.st8{opacity:0.8;fill:url(#SVGID_9_);}
	.st9{fill:#FF00CC;}
	.st10{fill:url(#SVGID_10_);}
	.st11{fill:url(#SVGID_11_);}
	.st12{fill:url(#SVGID_12_);}
	.st13{opacity:0.66;fill:url(#SVGID_13_);}
	.st14{opacity:0.66;fill:url(#SVGID_14_);}
	.st15{opacity:0.66;fill:url(#SVGID_15_);}
	.st16{opacity:0.8;fill:url(#SVGID_16_);}
	.st17{opacity:0.8;fill:url(#SVGID_17_);}
	.st18{opacity:0.8;fill:url(#SVGID_18_);}
	.st19{fill:url(#SVGID_19_);}
	.st20{fill:url(#SVGID_20_);}
	.st21{fill:url(#SVGID_21_);}
	.st22{opacity:0.66;fill:url(#SVGID_22_);}
	.st23{opacity:0.66;fill:url(#SVGID_23_);}
	.st24{opacity:0.66;fill:url(#SVGID_24_);}
	.st25{opacity:0.8;fill:url(#SVGID_25_);}
	.st26{opacity:0.8;fill:url(#SVGID_26_);}
	.st27{opacity:0.8;fill:url(#SVGID_27_);}
	.st28{fill:url(#SVGID_28_);}
	.st29{fill:url(#SVGID_29_);}
	.st30{fill:url(#SVGID_30_);}
	.st31{opacity:0.66;fill:url(#SVGID_31_);}
	.st32{opacity:0.66;fill:url(#SVGID_32_);}
	.st33{opacity:0.66;fill:url(#SVGID_33_);}
	.st34{opacity:0.8;fill:url(#SVGID_34_);}
	.st35{opacity:0.8;fill:url(#SVGID_35_);}
	.st36{opacity:0.8;fill:url(#SVGID_36_);}
	.st37{fill:url(#SVGID_37_);}
	.st38{fill:url(#SVGID_38_);}
	.st39{fill:url(#SVGID_39_);}
	.st40{opacity:0.66;fill:url(#SVGID_40_);}
	.st41{opacity:0.66;fill:url(#SVGID_41_);}
	.st42{opacity:0.66;fill:url(#SVGID_42_);}
	.st43{opacity:0.8;fill:url(#SVGID_43_);}
	.st44{opacity:0.8;fill:url(#SVGID_44_);}
	.st45{opacity:0.8;fill:url(#SVGID_45_);}
</style>
<g>
	<g>
		<path d="M62.72,53.89h-16.2V39.43h51.05v14.46h-16.2v40.86H62.72V53.89z"/>
		<path d="M137.32,85.11H116.3l-3.71,9.64H93.62l24.18-55.32h18.33l24.18,55.32h-19.28L137.32,85.11z M132.19,71.67l-5.37-13.91
			l-5.37,13.91H132.19z"/>
		<path d="M163.32,39.43h18.65v40.86h24.97v14.46h-43.62V39.43z"/>
		<path d="M234.6,76.41l-4.19,4.66v13.67h-18.33V39.43h18.33V59.5l18.18-20.07h20.31l-22.13,24.34L270,94.75h-21.57L234.6,76.41z"/>
		<path d="M327.06,39.43v55.32h-18.65V74.36h-17.23v20.39h-18.65V39.43h18.65v19.6h17.23v-19.6H327.06z"/>
		<path d="M342.71,89.14c-4.74-4.58-7.11-11.01-7.11-19.28V39.43h18.65V69.3c0,4.06,0.72,7.01,2.17,8.85
			c1.45,1.84,3.54,2.77,6.28,2.77s4.83-0.92,6.28-2.77c1.45-1.84,2.17-4.79,2.17-8.85V39.43h18.33v30.43
			c0,8.27-2.37,14.7-7.11,19.28c-4.74,4.58-11.35,6.88-19.84,6.88C354.06,96.01,347.45,93.72,342.71,89.14z"/>
		<path d="M449.87,71.12c1.79,2.32,2.69,5.11,2.69,8.38c0,4.85-2,8.6-6.01,11.26c-4,2.66-9.8,3.99-17.38,3.99h-31.14V39.43h29.56
			c7.38,0,12.95,1.32,16.72,3.95c3.77,2.63,5.65,6.14,5.65,10.51c0,2.58-0.65,4.9-1.94,6.95c-1.29,2.05-3.2,3.71-5.73,4.98
			C445.55,67.04,448.08,68.8,449.87,71.12z M416.36,52.47v8.22h8.69c4.06,0,6.09-1.37,6.09-4.11c0-2.74-2.03-4.11-6.09-4.11H416.36z
			 M433.75,77.36c0-2.9-2.05-4.35-6.16-4.35h-11.22v8.69h11.22C431.69,81.71,433.75,80.26,433.75,77.36z"/>
	</g>
</g>
</svg>
