<?xml version="1.0" encoding="utf-8"?>
<!-- Generator: Adobe Illustrator 25.3.1, SVG Export Plug-In . SVG Version: 6.00 Build 0)  -->
<svg version="1.1" id="OBJECTS" xmlns="http://www.w3.org/2000/svg" xmlns:xlink="http://www.w3.org/1999/xlink" x="0px" y="0px"
	 viewBox="0 0 500 500" style="enable-background:new 0 0 500 500;" xml:space="preserve">
<style type="text/css">
	.st0{fill:url(#SVGID_1_);}
	.st1{fill:url(#SVGID_2_);}
	.st2{fill:url(#SVGID_3_);}
	.st3{opacity:0.66;fill:url(#SVGID_4_);}
	.st4{opacity:0.66;fill:url(#SVGID_5_);}
	.st5{opacity:0.66;fill:url(#SVGID_6_);}
	.st6{opacity:0.8;fill:url(#SVGID_7_);}
	.st7{opacity:0.8;fill:url(#SVGID_8_);}
	.st8{opacity:0.8;fill:url(#SVGID_9_);}
	.st9{fill:#FF00CC;}
	.st10{fill:url(#SVGID_10_);}
	.st11{fill:url(#SVGID_11_);}
	.st12{fill:url(#SVGID_12_);}
	.st13{opacity:0.66;fill:url(#SVGID_13_);}
	.st14{opacity:0.66;fill:url(#SVGID_14_);}
	.st15{opacity:0.66;fill:url(#SVGID_15_);}
	.st16{opacity:0.8;fill:url(#SVGID_16_);}
	.st17{opacity:0.8;fill:url(#SVGID_17_);}
	.st18{opacity:0.8;fill:url(#SVGID_18_);}
	.st19{fill:url(#SVGID_19_);}
	.st20{fill:url(#SVGID_20_);}
	.st21{fill:url(#SVGID_21_);}
	.st22{opacity:0.66;fill:url(#SVGID_22_);}
	.st23{opacity:0.66;fill:url(#SVGID_23_);}
	.st24{opacity:0.66;fill:url(#SVGID_24_);}
	.st25{opacity:0.8;fill:url(#SVGID_25_);}
	.st26{opacity:0.8;fill:url(#SVGID_26_);}
	.st27{opacity:0.8;fill:url(#SVGID_27_);}
	.st28{fill:url(#SVGID_28_);}
	.st29{fill:url(#SVGID_29_);}
	.st30{fill:url(#SVGID_30_);}
	.st31{opacity:0.66;fill:url(#SVGID_31_);}
	.st32{opacity:0.66;fill:url(#SVGID_32_);}
	.st33{opacity:0.66;fill:url(#SVGID_33_);}
	.st34{opacity:0.8;fill:url(#SVGID_34_);}
	.st35{opacity:0.8;fill:url(#SVGID_35_);}
	.st36{opacity:0.8;fill:url(#SVGID_36_);}
	.st37{fill:url(#SVGID_37_);}
	.st38{fill:url(#SVGID_38_);}
	.st39{fill:url(#SVGID_39_);}
	.st40{opacity:0.66;fill:url(#SVGID_40_);}
	.st41{opacity:0.66;fill:url(#SVGID_41_);}
	.st42{opacity:0.66;fill:url(#SVGID_42_);}
	.st43{opacity:0.8;fill:url(#SVGID_43_);}
	.st44{opacity:0.8;fill:url(#SVGID_44_);}
	.st45{opacity:0.8;fill:url(#SVGID_45_);}
</style>
<g>
	<linearGradient id="SVGID_1_" gradientUnits="userSpaceOnUse" x1="48.8721" y1="204.5109" x2="451.1266" y2="204.5109">
		<stop  offset="0" style="stop-color:#FF00CC"/>
		<stop  offset="0.9987" style="stop-color:#4E00BB"/>
	</linearGradient>
	<path class="st0" d="M450.81,195.88c-2.18-28.81-15.46-55.05-37.38-73.88c-21.92-18.83-49.85-27.99-78.68-25.81
		c-24.67,1.87-47.44,11.89-65.3,28.49c6.31,8.81,11.53,18.31,15.58,28.32c13.39-15.19,31.83-24.4,52.06-25.94
		c20.56-1.55,40.51,4.98,56.16,18.43c15.65,13.44,25.12,32.17,26.68,52.74c1.56,20.57-4.98,40.51-18.43,56.16
		c-13.44,15.64-32.17,25.12-52.74,26.68c-42.48,3.22-79.62-28.7-82.84-71.16l-0.99-13.11c-2.18-28.81-15.46-55.05-37.38-73.88
		c-21.92-18.83-49.87-28-78.67-25.81c-28.82,2.18-55.06,15.46-73.89,37.38c-18.83,21.92-28,49.86-25.81,78.68
		c2.18,28.81,15.46,55.05,37.38,73.88c19.8,17.01,44.5,26.13,70.33,26.13c2.77,0,5.56-0.1,8.35-0.32
		c24.7-1.87,47.5-11.92,65.37-28.55c-6.24-8.71-11.51-18.19-15.62-28.29c-13.39,15.21-31.85,24.43-52.09,25.97
		c-20.55,1.56-40.51-4.98-56.16-18.43c-15.65-13.44-25.12-32.17-26.68-52.74c-1.56-20.57,4.98-40.51,18.43-56.16
		c13.44-15.65,32.17-25.12,52.74-26.68c20.58-1.56,40.51,4.99,56.16,18.43c15.65,13.44,25.12,32.17,26.68,52.74l0.99,13.11
		c4.3,56.72,51.82,100.02,107.8,100.01c2.73,0,5.49-0.1,8.25-0.31c28.82-2.18,55.06-15.46,73.89-37.38
		C443.83,252.64,452.99,224.7,450.81,195.88z"/>
	<linearGradient id="SVGID_2_" gradientUnits="userSpaceOnUse" x1="48.8719" y1="208.7202" x2="451.1266" y2="208.7202">
		<stop  offset="0" style="stop-color:#FF00CC"/>
		<stop  offset="0.9987" style="stop-color:#4E00BB"/>
	</linearGradient>
	<path class="st1" d="M425,274.56c18.83-21.92,28-49.86,25.81-78.68c-2.18-28.81-15.46-55.05-37.38-73.88
		c-21.92-18.83-49.85-27.99-78.68-25.81c-24.67,1.87-47.44,11.89-65.3,28.49c6.32,8.81,11.53,18.31,15.58,28.32
		c13.39-15.19,31.83-24.4,52.06-25.93c20.56-1.55,40.51,4.98,56.16,18.43c15.65,13.44,25.12,32.17,26.68,52.74
		c1.56,20.57-4.98,40.51-18.43,56.16c-13.44,15.64-32.17,25.12-52.74,26.68c-42.48,3.22-79.62-28.71-82.84-71.16l-0.99-13.11
		c-2.18-28.81-15.46-55.05-37.38-73.88c-21.92-18.83-49.87-28-78.67-25.81c-28.82,2.18-55.06,15.46-73.89,37.38
		c-18.83,21.92-28,49.86-25.81,78.68c1.81,23.92,11.29,46.04,26.98,63.65l-27.3,44.78l71.74-14.71c11.55,4.14,23.78,6.29,36.28,6.29
		c2.77,0,5.56-0.1,8.35-0.32c24.7-1.87,47.5-11.92,65.37-28.55c-6.24-8.71-11.51-18.19-15.62-28.29
		c-13.39,15.21-31.85,24.43-52.09,25.97c-20.55,1.56-40.51-4.98-56.16-18.43c-15.65-13.44-25.12-32.17-26.68-52.74
		c-1.56-20.57,4.98-40.51,18.43-56.16c13.44-15.65,32.17-25.12,52.74-26.68c20.58-1.56,40.51,4.99,56.16,18.43
		c15.65,13.44,25.12,32.17,26.68,52.74l0.99,13.11c4.3,56.72,51.82,100.02,107.8,100.01c2.73,0,5.49-0.1,8.25-0.31
		c9.35-0.71,18.41-2.6,27.05-5.56l72.96,15.2l-27.39-45.61C424.15,275.49,424.59,275.04,425,274.56z"/>
	<linearGradient id="SVGID_3_" gradientUnits="userSpaceOnUse" x1="48.8721" y1="209.1699" x2="435.6418" y2="209.1699">
		<stop  offset="0" style="stop-color:#FF00CC"/>
		<stop  offset="0.9987" style="stop-color:#4E00BB"/>
	</linearGradient>
	<path class="st2" d="M435.37,197.05c-3.87-51.05-48.39-89.3-99.44-85.43c-22.76,1.73-42.97,11.55-58.04,26.41
		c2.68,4.84,5.07,9.83,7.15,14.96c13.39-15.19,31.83-24.4,52.06-25.94c20.56-1.55,40.51,4.98,56.16,18.43
		c15.65,13.44,25.12,32.17,26.68,52.74c1.56,20.57-4.98,40.51-18.43,56.16c-13.44,15.64-32.17,25.12-52.74,26.68
		c-42.48,3.22-79.62-28.71-82.84-71.16l-0.99-13.11c-2.18-28.81-15.46-55.05-37.38-73.88c-21.92-18.83-49.87-28-78.67-25.81
		c-28.82,2.18-55.06,15.46-73.89,37.38c-18.83,21.92-28,49.86-25.81,78.68c1.81,23.92,11.29,46.04,26.98,63.65l-27.3,44.78
		l71.74-14.71c11.55,4.14,23.78,6.29,36.28,6.29c2.77,0,5.56-0.1,8.35-0.32c24.7-1.87,47.5-11.92,65.37-28.55
		c-3.06-4.27-5.88-8.73-8.45-13.35c-15.08,14.89-35.3,24.74-58.09,26.47c-51.05,3.87-95.57-34.38-99.44-85.43
		c-3.87-51.05,34.38-95.57,85.43-99.44c51.05-3.87,95.57,34.38,99.44,85.43l0.99,13.11c3.87,51.05,48.39,89.3,99.44,85.43
		C400.99,292.63,439.24,248.11,435.37,197.05z"/>
	<linearGradient id="SVGID_4_" gradientUnits="userSpaceOnUse" x1="64.1246" y1="162.2457" x2="150.0577" y2="162.2457">
		<stop  offset="0" style="stop-color:#000000"/>
		<stop  offset="0.5801" style="stop-color:#FFFFFF"/>
		<stop  offset="1" style="stop-color:#000000"/>
	</linearGradient>
	<path class="st3" d="M64.63,211.97c-4.73-44.09,24.48-85.83,67.4-96.78c2.99-0.6,5.97-1.26,8.96-1.79l9.07-0.87
		c-12.06,1.37-23.82,4.84-34.48,10.43C83.03,139.48,62.7,175.59,64.63,211.97L64.63,211.97z"/>
	<linearGradient id="SVGID_5_" gradientUnits="userSpaceOnUse" x1="249.4776" y1="241.2917" x2="297.0614" y2="241.2917">
		<stop  offset="0" style="stop-color:#000000"/>
		<stop  offset="0.5801" style="stop-color:#FFFFFF"/>
		<stop  offset="1" style="stop-color:#000000"/>
	</linearGradient>
	<path class="st4" d="M249.5,197.95c1.14,8.54,1.59,17.2,3.62,25.59c4.86,20.9,16.81,39.98,33.48,53.46
		c3.27,2.82,6.87,5.2,10.45,7.62c-3.83-2.01-7.55-4.27-11.07-6.82C259.53,258.35,248.89,230.07,249.5,197.95L249.5,197.95z"/>
	<linearGradient id="SVGID_6_" gradientUnits="userSpaceOnUse" x1="277.8877" y1="124.8289" x2="335.9272" y2="124.8289">
		<stop  offset="0" style="stop-color:#000000"/>
		<stop  offset="0.5801" style="stop-color:#FFFFFF"/>
		<stop  offset="1" style="stop-color:#000000"/>
	</linearGradient>
	<path class="st5" d="M335.93,111.62c-18.69,2.69-36.65,9.89-51.68,21.35c-1.9,1.41-4.55,3.57-6.36,5.06
		C292.36,121.65,314.06,111.74,335.93,111.62L335.93,111.62z"/>
	<linearGradient id="SVGID_7_" gradientUnits="userSpaceOnUse" x1="94.9194" y1="286.2438" x2="94.9194" y2="127.4051">
		<stop  offset="0" style="stop-color:#FFFFFF"/>
		<stop  offset="0.0943" style="stop-color:#DADAF9"/>
		<stop  offset="0.3029" style="stop-color:#7E7EE9"/>
		<stop  offset="0.449" style="stop-color:#3A3ADE"/>
		<stop  offset="0.6173" style="stop-color:#7777E8"/>
		<stop  offset="1" style="stop-color:#FFFFFF"/>
	</linearGradient>
	<path class="st6" d="M125.48,275.45c-6.7-3.01-13.01-7-18.74-11.92c-15.65-13.44-25.12-32.17-26.68-52.74
		c-1.56-20.57,4.98-40.51,18.43-56.16c6.54-7.61,14.33-13.74,22.97-18.23c-0.97-0.83-1.96-1.63-2.99-2.38
		c-3.74-2.73-7.87-4.92-12.2-6.62c-27.29,17.91-44.29,49.71-41.65,84.56c2.46,32.44,21.35,59.7,47.89,74.28
		C117.5,283.52,121.8,279.81,125.48,275.45z"/>
	<linearGradient id="SVGID_8_" gradientUnits="userSpaceOnUse" x1="255.8932" y1="249.3265" x2="350.5881" y2="305.9053">
		<stop  offset="0" style="stop-color:#FFFFFF"/>
		<stop  offset="0.0943" style="stop-color:#DADAF9"/>
		<stop  offset="0.3029" style="stop-color:#7E7EE9"/>
		<stop  offset="0.449" style="stop-color:#3A3ADE"/>
		<stop  offset="0.6173" style="stop-color:#7777E8"/>
		<stop  offset="1" style="stop-color:#FFFFFF"/>
	</linearGradient>
	<path class="st7" d="M349.94,296.5c-45.55,3.45-85.88-26.64-96.79-69.43c-4.66,4.12-8.64,8.98-11.63,14.64
		c15.45,41.57,55.56,70.54,101.34,70.54c2.73,0,5.49-0.1,8.25-0.31c4.96-0.38,9.85-1.1,14.63-2.12c1.2-2.24,2.33-4.51,3.42-6.77
		c1.83-3.81,3.56-7.73,5.07-11.72C366.57,294.06,358.44,295.85,349.94,296.5z"/>
	<linearGradient id="SVGID_9_" gradientUnits="userSpaceOnUse" x1="176.4897" y1="122.7055" x2="219.5923" y2="154.4654">
		<stop  offset="0" style="stop-color:#FFFFFF"/>
		<stop  offset="0.0943" style="stop-color:#DADAF9"/>
		<stop  offset="0.3029" style="stop-color:#7E7EE9"/>
		<stop  offset="0.449" style="stop-color:#3A3ADE"/>
		<stop  offset="0.6173" style="stop-color:#7777E8"/>
		<stop  offset="1" style="stop-color:#FFFFFF"/>
	</linearGradient>
	<path class="st8" d="M162.76,112.45c-2.05,4.78-3.62,9.75-4.54,14.9c-0.02,0.14-0.04,0.27-0.06,0.41
		c18.09,0.23,35.34,6.71,49.22,18.63c8.13,6.99,14.58,15.41,19.13,24.77c0.6-0.43,1.21-0.85,1.79-1.31
		c3.66-2.92,6.89-6.35,9.67-10.12C222.87,132.74,194.77,114.38,162.76,112.45z"/>
</g>
<g>
	<g>
		<path class="st9" d="M89.51,366.79H75.66v-12.37h43.65v12.37h-13.85v34.94H89.51V366.79z"/>
		<path class="st9" d="M153.3,393.49h-17.97l-3.18,8.24h-16.22l20.68-47.3h15.68l20.68,47.3h-16.49L153.3,393.49z M148.91,382
			l-4.6-11.89L139.72,382H148.91z"/>
		<path class="st9" d="M175.53,354.43h15.95v34.94h21.35v12.37h-37.3V354.43z"/>
		<path class="st9" d="M236.48,386.05l-3.58,3.99v11.69h-15.68v-47.3h15.68v17.16l15.54-17.16h17.37l-18.92,20.81l19.87,26.49
			h-18.45L236.48,386.05z"/>
		<path class="st9" d="M315.55,354.43v47.3H299.6V384.3h-14.73v17.43h-15.95v-47.3h15.95v16.76h14.73v-16.76H315.55z"/>
		<path class="st9" d="M328.93,396.93c-4.05-3.92-6.08-9.41-6.08-16.49v-26.02h15.95v25.54c0,3.47,0.62,5.99,1.86,7.57
			c1.24,1.58,3.03,2.37,5.37,2.37c2.34,0,4.13-0.79,5.37-2.37c1.24-1.58,1.86-4.1,1.86-7.57v-25.54h15.68v26.02
			c0,7.07-2.03,12.57-6.08,16.49c-4.05,3.92-9.71,5.88-16.96,5.88C338.63,402.81,332.98,400.85,328.93,396.93z"/>
		<path class="st9" d="M420.56,381.53c1.53,1.98,2.3,4.37,2.3,7.16c0,4.15-1.71,7.36-5.14,9.63c-3.42,2.28-8.38,3.41-14.87,3.41
			h-26.63v-47.3h25.27c6.31,0,11.07,1.13,14.29,3.38c3.22,2.25,4.83,5.25,4.83,8.99c0,2.21-0.55,4.19-1.66,5.95
			c-1.1,1.76-2.74,3.18-4.9,4.26C416.86,378.03,419.03,379.54,420.56,381.53z M391.9,365.58v7.03h7.43c3.47,0,5.2-1.17,5.2-3.51
			c0-2.34-1.73-3.51-5.2-3.51H391.9z M406.77,386.86c0-2.48-1.76-3.72-5.27-3.72h-9.6v7.43h9.6
			C405.01,390.58,406.77,389.34,406.77,386.86z"/>
	</g>
</g>
</svg>
