<?xml version="1.0" encoding="utf-8"?>
<!-- Generator: Adobe Illustrator 25.3.1, SVG Export Plug-In . SVG Version: 6.00 Build 0)  -->
<svg version="1.1" id="OBJECTS" xmlns="http://www.w3.org/2000/svg" xmlns:xlink="http://www.w3.org/1999/xlink" x="0px" y="0px"
	 viewBox="0 0 500 500" style="enable-background:new 0 0 500 500;" xml:space="preserve">
<style type="text/css">
	.st0{fill:url(#SVGID_1_);}
	.st1{fill:url(#SVGID_2_);}
	.st2{fill:url(#SVGID_3_);}
	.st3{opacity:0.66;fill:url(#SVGID_4_);}
	.st4{opacity:0.66;fill:url(#SVGID_5_);}
	.st5{opacity:0.66;fill:url(#SVGID_6_);}
	.st6{opacity:0.8;fill:url(#SVGID_7_);}
	.st7{opacity:0.8;fill:url(#SVGID_8_);}
	.st8{opacity:0.8;fill:url(#SVGID_9_);}
	.st9{fill:#FF00CC;}
	.st10{fill:url(#SVGID_10_);}
	.st11{fill:url(#SVGID_11_);}
	.st12{fill:url(#SVGID_12_);}
	.st13{opacity:0.66;fill:url(#SVGID_13_);}
	.st14{opacity:0.66;fill:url(#SVGID_14_);}
	.st15{opacity:0.66;fill:url(#SVGID_15_);}
	.st16{opacity:0.8;fill:url(#SVGID_16_);}
	.st17{opacity:0.8;fill:url(#SVGID_17_);}
	.st18{opacity:0.8;fill:url(#SVGID_18_);}
	.st19{fill:url(#SVGID_19_);}
	.st20{fill:url(#SVGID_20_);}
	.st21{fill:url(#SVGID_21_);}
	.st22{opacity:0.66;fill:url(#SVGID_22_);}
	.st23{opacity:0.66;fill:url(#SVGID_23_);}
	.st24{opacity:0.66;fill:url(#SVGID_24_);}
	.st25{opacity:0.8;fill:url(#SVGID_25_);}
	.st26{opacity:0.8;fill:url(#SVGID_26_);}
	.st27{opacity:0.8;fill:url(#SVGID_27_);}
	.st28{fill:url(#SVGID_28_);}
	.st29{fill:url(#SVGID_29_);}
	.st30{fill:url(#SVGID_30_);}
	.st31{opacity:0.66;fill:url(#SVGID_31_);}
	.st32{opacity:0.66;fill:url(#SVGID_32_);}
	.st33{opacity:0.66;fill:url(#SVGID_33_);}
	.st34{opacity:0.8;fill:url(#SVGID_34_);}
	.st35{opacity:0.8;fill:url(#SVGID_35_);}
	.st36{opacity:0.8;fill:url(#SVGID_36_);}
	.st37{fill:url(#SVGID_37_);}
	.st38{fill:url(#SVGID_38_);}
	.st39{fill:url(#SVGID_39_);}
	.st40{opacity:0.66;fill:url(#SVGID_40_);}
	.st41{opacity:0.66;fill:url(#SVGID_41_);}
	.st42{opacity:0.66;fill:url(#SVGID_42_);}
	.st43{opacity:0.8;fill:url(#SVGID_43_);}
	.st44{opacity:0.8;fill:url(#SVGID_44_);}
	.st45{opacity:0.8;fill:url(#SVGID_45_);}
</style>
<g>
	<linearGradient id="SVGID_1_" gradientUnits="userSpaceOnUse" x1="47.4462" y1="204.1929" x2="452.5541" y2="204.1929">
		<stop  offset="0" style="stop-color:#FF00CC"/>
		<stop  offset="0.9987" style="stop-color:#4E00BB"/>
	</linearGradient>
	<path class="st0" d="M452.23,195.5c-2.2-29.02-15.57-55.44-37.64-74.41c-22.08-18.96-50.2-28.19-79.23-26
		c-24.85,1.88-47.78,11.98-65.77,28.69c6.36,8.87,11.61,18.44,15.69,28.52c13.48-15.3,32.06-24.57,52.43-26.12
		c20.71-1.57,40.8,5.02,56.55,18.56c15.76,13.54,25.3,32.4,26.87,53.11c1.57,20.71-5.02,40.8-18.56,56.56
		c-13.54,15.76-32.4,25.3-53.11,26.87c-42.79,3.24-80.19-28.91-83.43-71.67l-1-13.21c-2.2-29.02-15.57-55.44-37.64-74.41
		c-22.08-18.96-50.23-28.2-79.23-26c-29.02,2.2-55.45,15.57-74.41,37.64c-18.96,22.08-28.2,50.21-26,79.23
		c2.2,29.02,15.57,55.44,37.64,74.41c19.94,17.13,44.82,26.32,70.83,26.32c2.79,0,5.6-0.11,8.41-0.32
		c24.88-1.88,47.83-12,65.83-28.75c-6.29-8.77-11.59-18.32-15.73-28.49c-13.49,15.32-32.07,24.61-52.46,26.15
		c-20.7,1.58-40.8-5.02-56.56-18.56c-15.76-13.54-25.3-32.4-26.87-53.11c-1.57-20.71,5.02-40.8,18.56-56.55
		c13.54-15.76,32.4-25.3,53.11-26.87c20.72-1.57,40.8,5.02,56.56,18.56c15.76,13.54,25.3,32.4,26.87,53.11l1,13.21
		c4.33,57.12,52.19,100.73,108.56,100.72c2.75,0,5.53-0.1,8.31-0.32c29.02-2.2,55.45-15.57,74.41-37.64
		C445.2,252.66,454.44,224.52,452.23,195.5z"/>
	<linearGradient id="SVGID_2_" gradientUnits="userSpaceOnUse" x1="47.4459" y1="208.432" x2="452.5541" y2="208.432">
		<stop  offset="0" style="stop-color:#FF00CC"/>
		<stop  offset="0.9987" style="stop-color:#4E00BB"/>
	</linearGradient>
	<path class="st1" d="M426.24,274.74c18.96-22.08,28.2-50.21,26-79.23c-2.2-29.02-15.57-55.44-37.64-74.41
		c-22.08-18.96-50.2-28.19-79.23-26c-24.85,1.88-47.78,11.98-65.77,28.69c6.36,8.87,11.61,18.43,15.69,28.52
		c13.48-15.3,32.06-24.57,52.43-26.12c20.71-1.57,40.8,5.02,56.55,18.56c15.76,13.54,25.3,32.4,26.87,53.11
		c1.57,20.71-5.02,40.8-18.56,56.56c-13.54,15.76-32.4,25.3-53.11,26.87c-42.79,3.24-80.19-28.91-83.43-71.67l-1-13.21
		c-2.2-29.02-15.57-55.44-37.64-74.41c-22.08-18.96-50.23-28.2-79.23-26c-29.02,2.2-55.45,15.57-74.41,37.64
		c-18.96,22.08-28.2,50.21-26,79.23c1.83,24.09,11.37,46.37,27.18,64.1l-27.5,45.1l72.25-14.82c11.63,4.17,23.95,6.34,36.54,6.34
		c2.79,0,5.6-0.11,8.41-0.32c24.88-1.89,47.83-12,65.83-28.75c-6.29-8.77-11.59-18.32-15.73-28.49
		c-13.49,15.32-32.07,24.61-52.46,26.15c-20.7,1.58-40.8-5.02-56.56-18.56c-15.76-13.54-25.3-32.4-26.87-53.11
		c-1.57-20.71,5.02-40.8,18.56-56.55c13.54-15.76,32.4-25.3,53.11-26.87c20.72-1.57,40.8,5.02,56.56,18.56
		c15.76,13.54,25.3,32.4,26.87,53.11l1,13.21c4.33,57.12,52.19,100.72,108.56,100.72c2.75,0,5.53-0.1,8.31-0.32
		c9.41-0.71,18.54-2.62,27.25-5.6l73.48,15.3l-27.59-45.94C425.39,275.67,425.82,275.22,426.24,274.74z"/>
	<linearGradient id="SVGID_3_" gradientUnits="userSpaceOnUse" x1="47.4462" y1="208.8849" x2="436.9594" y2="208.8849">
		<stop  offset="0" style="stop-color:#FF00CC"/>
		<stop  offset="0.9987" style="stop-color:#4E00BB"/>
	</linearGradient>
	<path class="st2" d="M436.69,196.68c-3.9-51.41-48.74-89.93-100.15-86.04c-22.92,1.74-43.27,11.63-58.45,26.6
		c2.7,4.87,5.11,9.9,7.2,15.07c13.48-15.3,32.06-24.57,52.43-26.12c20.71-1.57,40.8,5.02,56.56,18.56
		c15.76,13.54,25.3,32.4,26.87,53.11c1.57,20.71-5.02,40.8-18.56,56.56c-13.54,15.76-32.4,25.3-53.11,26.87
		c-42.79,3.24-80.18-28.91-83.43-71.67l-1-13.21c-2.2-29.02-15.57-55.44-37.64-74.41c-22.07-18.96-50.23-28.2-79.23-26
		c-29.02,2.2-55.45,15.57-74.41,37.64c-18.96,22.08-28.2,50.21-26,79.23c1.82,24.09,11.37,46.37,27.18,64.1l-27.5,45.1l72.25-14.82
		c11.63,4.17,23.95,6.34,36.54,6.34c2.79,0,5.6-0.11,8.41-0.32c24.88-1.89,47.83-12,65.83-28.75c-3.08-4.3-5.92-8.79-8.51-13.45
		c-15.19,15-35.55,24.91-58.5,26.65c-51.41,3.9-96.25-34.62-100.15-86.04c-3.9-51.41,34.62-96.25,86.04-100.15
		c51.41-3.9,96.25,34.62,100.15,86.04l1,13.21c3.9,51.41,48.74,89.93,100.15,86.04C402.06,292.94,440.59,248.1,436.69,196.68z"/>
	<linearGradient id="SVGID_4_" gradientUnits="userSpaceOnUse" x1="62.8069" y1="161.6279" x2="149.3495" y2="161.6279">
		<stop  offset="0" style="stop-color:#000000"/>
		<stop  offset="0.5801" style="stop-color:#FFFFFF"/>
		<stop  offset="1" style="stop-color:#000000"/>
	</linearGradient>
	<path class="st3" d="M63.31,211.7c-4.77-44.4,24.65-86.44,67.88-97.46c3.02-0.6,6.01-1.27,9.02-1.8l9.14-0.88
		c-12.15,1.38-23.99,4.88-34.73,10.51C81.84,138.7,61.37,175.06,63.31,211.7L63.31,211.7z"/>
	<linearGradient id="SVGID_5_" gradientUnits="userSpaceOnUse" x1="249.4746" y1="241.2346" x2="297.396" y2="241.2346">
		<stop  offset="0" style="stop-color:#000000"/>
		<stop  offset="0.5801" style="stop-color:#FFFFFF"/>
		<stop  offset="1" style="stop-color:#000000"/>
	</linearGradient>
	<path class="st4" d="M249.5,197.59c1.15,8.6,1.61,17.33,3.65,25.77c4.89,21.05,16.93,40.26,33.72,53.84
		c3.29,2.84,6.92,5.23,10.53,7.68c-3.86-2.02-7.61-4.3-11.15-6.87C259.6,258.41,248.88,229.93,249.5,197.59L249.5,197.59z"/>
	<linearGradient id="SVGID_6_" gradientUnits="userSpaceOnUse" x1="278.0863" y1="123.9456" x2="336.5375" y2="123.9456">
		<stop  offset="0" style="stop-color:#000000"/>
		<stop  offset="0.5801" style="stop-color:#FFFFFF"/>
		<stop  offset="1" style="stop-color:#000000"/>
	</linearGradient>
	<path class="st5" d="M336.54,110.65c-18.82,2.71-36.9,9.96-52.05,21.5c-1.91,1.42-4.58,3.59-6.41,5.1
		C292.66,120.74,314.52,110.76,336.54,110.65L336.54,110.65z"/>
	<linearGradient id="SVGID_7_" gradientUnits="userSpaceOnUse" x1="93.8201" y1="286.5056" x2="93.8201" y2="126.5401">
		<stop  offset="0" style="stop-color:#FFFFFF"/>
		<stop  offset="0.0943" style="stop-color:#DADAF9"/>
		<stop  offset="0.3029" style="stop-color:#7E7EE9"/>
		<stop  offset="0.449" style="stop-color:#3A3ADE"/>
		<stop  offset="0.6173" style="stop-color:#7777E8"/>
		<stop  offset="1" style="stop-color:#FFFFFF"/>
	</linearGradient>
	<path class="st6" d="M124.6,275.64c-6.75-3.03-13.1-7.05-18.87-12c-15.76-13.54-25.3-32.4-26.87-53.11
		c-1.57-20.71,5.02-40.8,18.56-56.55c6.58-7.66,14.43-13.84,23.13-18.36c-0.97-0.83-1.97-1.64-3.01-2.39
		c-3.77-2.74-7.93-4.96-12.28-6.67c-27.49,18.04-44.61,50.06-41.95,85.16c2.48,32.68,21.5,60.12,48.23,74.8
		C116.56,283.76,120.89,280.02,124.6,275.64z"/>
	<linearGradient id="SVGID_8_" gradientUnits="userSpaceOnUse" x1="255.9358" y1="249.3264" x2="351.3024" y2="306.3065">
		<stop  offset="0" style="stop-color:#FFFFFF"/>
		<stop  offset="0.0943" style="stop-color:#DADAF9"/>
		<stop  offset="0.3029" style="stop-color:#7E7EE9"/>
		<stop  offset="0.449" style="stop-color:#3A3ADE"/>
		<stop  offset="0.6173" style="stop-color:#7777E8"/>
		<stop  offset="1" style="stop-color:#FFFFFF"/>
	</linearGradient>
	<path class="st7" d="M350.65,296.83c-45.88,3.48-86.49-26.83-97.48-69.92c-4.69,4.15-8.7,9.05-11.71,14.74
		c15.56,41.87,55.96,71.04,102.06,71.04c2.75,0,5.53-0.1,8.31-0.32c5-0.38,9.92-1.1,14.73-2.14c1.2-2.26,2.35-4.54,3.44-6.82
		c1.84-3.83,3.59-7.78,5.1-11.8C367.4,294.38,359.21,296.18,350.65,296.83z"/>
	<linearGradient id="SVGID_9_" gradientUnits="userSpaceOnUse" x1="175.969" y1="121.8072" x2="219.3773" y2="153.7924">
		<stop  offset="0" style="stop-color:#FFFFFF"/>
		<stop  offset="0.0943" style="stop-color:#DADAF9"/>
		<stop  offset="0.3029" style="stop-color:#7E7EE9"/>
		<stop  offset="0.449" style="stop-color:#3A3ADE"/>
		<stop  offset="0.6173" style="stop-color:#7777E8"/>
		<stop  offset="1" style="stop-color:#FFFFFF"/>
	</linearGradient>
	<path class="st8" d="M162.14,111.48c-2.06,4.82-3.65,9.82-4.57,15c-0.02,0.14-0.04,0.28-0.06,0.41
		c18.22,0.23,35.59,6.75,49.57,18.76c8.19,7.04,14.68,15.52,19.27,24.95c0.61-0.44,1.22-0.86,1.81-1.32
		c3.69-2.94,6.94-6.4,9.74-10.19C222.68,131.91,194.38,113.42,162.14,111.48z"/>
</g>
<g>
	<g>
		<path d="M88.37,367.63H74.42v-12.45h43.96v12.45h-13.95v35.18H88.37V367.63z"/>
		<path d="M152.61,394.51h-18.1l-3.2,8.3h-16.33l20.82-47.64h15.79l20.83,47.64h-16.61L152.61,394.51z M148.19,382.94l-4.63-11.98
			l-4.63,11.98H148.19z"/>
		<path d="M175,355.17h16.06v35.19h21.51v12.45H175V355.17z"/>
		<path d="M236.39,387.02l-3.61,4.02v11.77h-15.79v-47.64h15.79v17.29l15.65-17.29h17.49l-19.05,20.96l20.01,26.68H248.3
			L236.39,387.02z"/>
		<path d="M316.01,355.17v47.64h-16.06v-17.56h-14.84v17.56h-16.06v-47.64h16.06v16.88h14.84v-16.88H316.01z"/>
		<path d="M329.49,397.98c-4.08-3.95-6.13-9.48-6.13-16.61v-26.2h16.06v25.72c0,3.5,0.62,6.04,1.87,7.62
			c1.25,1.59,3.05,2.38,5.41,2.38c2.36,0,4.16-0.79,5.41-2.38c1.25-1.59,1.87-4.13,1.87-7.62v-25.72h15.79v26.2
			c0,7.12-2.04,12.66-6.13,16.61c-4.08,3.95-9.78,5.92-17.08,5.92C339.26,403.9,333.57,401.93,329.49,397.98z"/>
		<path d="M421.77,382.46c1.54,2,2.31,4.4,2.31,7.21c0,4.18-1.72,7.41-5.17,9.7c-3.45,2.29-8.44,3.44-14.97,3.44h-26.81v-47.64
			h25.45c6.35,0,11.15,1.13,14.39,3.4c3.24,2.27,4.87,5.29,4.87,9.05c0,2.22-0.56,4.22-1.67,5.99c-1.11,1.77-2.76,3.2-4.93,4.29
			C418.05,378.95,420.22,380.47,421.77,382.46z M392.91,366.4v7.08h7.49c3.49,0,5.24-1.18,5.24-3.54c0-2.36-1.75-3.54-5.24-3.54
			H392.91z M407.88,387.84c0-2.49-1.77-3.74-5.31-3.74h-9.66v7.49h9.66C406.11,391.58,407.88,390.33,407.88,387.84z"/>
	</g>
</g>
</svg>
