<?xml version="1.0" encoding="utf-8"?>
<!-- Generator: Adobe Illustrator 25.3.1, SVG Export Plug-In . SVG Version: 6.00 Build 0)  -->
<svg version="1.1" id="OBJECTS" xmlns="http://www.w3.org/2000/svg" xmlns:xlink="http://www.w3.org/1999/xlink" x="0px" y="0px"
	 viewBox="0 0 500 500" style="enable-background:new 0 0 500 500;" xml:space="preserve">
<style type="text/css">
	.st0{fill:#FF00CC;}
	.st1{fill:url(#SVGID_1_);}
	.st2{fill:url(#SVGID_2_);}
	.st3{fill:url(#SVGID_3_);}
	.st4{opacity:0.66;fill:url(#SVGID_4_);enable-background:new    ;}
	.st5{opacity:0.66;fill:url(#SVGID_5_);enable-background:new    ;}
	.st6{opacity:0.66;fill:url(#SVGID_6_);enable-background:new    ;}
</style>
<g>
	<g>
		<path class="st0" d="M89.5,366.8H75.7v-12.4h43.7v12.4h-13.8v34.9h-16V366.8z"/>
		<path class="st0" d="M153.3,393.5h-18l-3.2,8.2h-16.2l20.7-47.3h15.7l20.7,47.3h-16.5L153.3,393.5z M148.9,382l-4.6-11.9
			l-4.6,11.9H148.9z"/>
		<path class="st0" d="M175.5,354.4h15.9v34.9h21.4v12.4h-37.3V354.4z"/>
		<path class="st0" d="M236.5,386l-3.6,4v11.7h-15.7v-47.3h15.7v17.2l15.5-17.2h17.4l-18.9,20.8l19.9,26.5h-18.4L236.5,386z"/>
		<path class="st0" d="M315.5,354.4v47.3h-15.9v-17.4h-14.7v17.4h-16v-47.3h16v16.8h14.7v-16.8H315.5z"/>
		<path class="st0" d="M328.9,396.9c-4-3.9-6.1-9.4-6.1-16.5v-26h16V380c0,3.5,0.6,6,1.9,7.6c1.2,1.6,3,2.4,5.4,2.4s4.1-0.8,5.4-2.4
			s1.9-4.1,1.9-7.6v-25.5h15.7v26c0,7.1-2,12.6-6.1,16.5c-4,3.9-9.7,5.9-17,5.9C338.6,402.8,333,400.9,328.9,396.9z"/>
		<path class="st0" d="M420.6,381.5c1.5,2,2.3,4.4,2.3,7.2c0,4.1-1.7,7.4-5.1,9.6c-3.4,2.3-8.4,3.4-14.9,3.4h-26.6v-47.3h25.3
			c6.3,0,11.1,1.1,14.3,3.4s4.8,5.2,4.8,9c0,2.2-0.5,4.2-1.7,6c-1.1,1.8-2.7,3.2-4.9,4.3C416.9,378,419,379.5,420.6,381.5z
			 M391.9,365.6v7h7.4c3.5,0,5.2-1.2,5.2-3.5s-1.7-3.5-5.2-3.5L391.9,365.6L391.9,365.6z M406.8,386.9c0-2.5-1.8-3.7-5.3-3.7h-9.6
			v7.4h9.6C405,390.6,406.8,389.3,406.8,386.9z"/>
	</g>
</g>
<g>
	
		<linearGradient id="SVGID_1_" gradientUnits="userSpaceOnUse" x1="51.0041" y1="284.296" x2="449.9959" y2="284.296" gradientTransform="matrix(1 0 0 -1 0 500)">
		<stop  offset="0" style="stop-color:#FF00CC"/>
		<stop  offset="0.9987" style="stop-color:#4E00BB"/>
	</linearGradient>
	<path class="st1" d="M449.7,207.1c-2.2-28.6-15.3-54.6-37.1-73.3s-49.4-27.8-78-25.6c-24.5,1.9-47.1,11.8-64.8,28.3
		c6.3,8.7,11.4,18.2,15.4,28.1c13.3-15.1,31.6-24.2,51.6-25.7c20.4-1.5,40.2,4.9,55.7,18.3s24.9,31.9,26.5,52.3
		c1.5,20.4-4.9,40.2-18.3,55.7c-13.3,15.5-31.9,24.9-52.3,26.5c-42.1,3.2-79-28.5-82.2-70.6l-1-13c-2.2-28.6-15.3-54.6-37.1-73.3
		s-49.5-27.8-78-25.6c-28.6,2.2-54.6,15.3-73.3,37.1c-18.7,21.7-27.8,49.5-25.6,78c2.2,28.6,15.3,54.6,37.1,73.3
		c19.6,16.9,44.1,25.9,69.8,25.9c2.7,0,5.5-0.1,8.3-0.3c24.5-1.9,47.1-11.8,64.8-28.3c-6.2-8.6-11.4-18-15.5-28.1
		c-13.3,15.1-31.6,24.2-51.7,25.8c-20.4,1.5-40.2-4.9-55.7-18.3c-15.5-13.3-24.9-31.9-26.5-52.3c-1.5-20.4,4.9-40.2,18.3-55.7
		s31.9-24.9,52.3-26.5c20.4-1.5,40.2,4.9,55.7,18.3s24.9,31.9,26.5,52.3l1,13c4.3,56.3,51.4,99.2,106.9,99.2c2.7,0,5.4-0.1,8.2-0.3
		c28.6-2.2,54.6-15.3,73.3-37.1C442.8,263.4,451.9,235.7,449.7,207.1z"/>
	
		<linearGradient id="SVGID_2_" gradientUnits="userSpaceOnUse" x1="51" y1="280.1147" x2="450" y2="280.1147" gradientTransform="matrix(1 0 0 -1 0 500)">
		<stop  offset="2.770450e-07" style="stop-color:#D900CC"/>
		<stop  offset="0.9987" style="stop-color:#4E00BB"/>
	</linearGradient>
	<path class="st2" d="M424.1,285.2c18.7-21.7,27.8-49.5,25.6-78s-15.3-54.6-37.1-73.3s-49.4-27.8-78-25.6
		c-24.5,1.9-47.1,11.8-64.8,28.3c6.3,8.7,11.4,18.2,15.4,28.1c13.3-15.1,31.6-24.2,51.6-25.7c20.4-1.5,40.2,4.9,55.7,18.3
		s24.9,31.9,26.5,52.3c1.5,20.4-4.9,40.2-18.3,55.7c-13.3,15.5-31.9,24.9-52.3,26.5c-42.1,3.2-79-28.5-82.2-70.6l-1-13
		c-2.2-28.6-15.3-54.6-37.1-73.3s-49.5-27.8-78-25.6c-28.6,2.2-54.6,15.3-73.3,37.1c-18.7,21.7-27.8,49.5-25.6,78
		c1.8,23.7,11.2,45.7,26.8,63.1L51,331.8l71.2-14.6c11.5,4.1,23.6,6.2,36,6.2c2.7,0,5.5-0.1,8.3-0.3c24.5-1.9,47.1-11.8,64.8-28.3
		c-6.2-8.6-11.4-18-15.5-28.1c-13.3,15.1-31.6,24.2-51.7,25.8c-20.4,1.5-40.2-4.9-55.7-18.3c-15.5-13.3-24.9-31.9-26.5-52.3
		c-1.5-20.4,4.9-40.2,18.3-55.7s31.9-24.9,52.3-26.5c20.4-1.5,40.2,4.9,55.7,18.3s24.9,31.9,26.5,52.3l1,13
		c4.3,56.3,51.4,99.2,106.9,99.2c2.7,0,5.4-0.1,8.2-0.3c9.3-0.7,18.3-2.6,26.8-5.5l72.4,15.1l-27.2-45.2
		C423.2,286.1,423.7,285.7,424.1,285.2z"/>
	
		<linearGradient id="SVGID_3_" gradientUnits="userSpaceOnUse" x1="51" y1="279.6758" x2="434.6422" y2="279.6758" gradientTransform="matrix(1 0 0 -1 0 500)">
		<stop  offset="2.770450e-07" style="stop-color:#FF4FCC"/>
		<stop  offset="0.9987" style="stop-color:#32007F"/>
	</linearGradient>
	<path class="st3" d="M434.4,208.3c-3.8-50.6-48-88.6-98.6-84.7c-22.6,1.7-42.6,11.5-57.6,26.2c2.6,4.8,5,9.8,7.1,14.8
		c13.3-15.1,31.6-24.2,51.6-25.7c20.4-1.5,40.2,4.9,55.7,18.3c15.5,13.3,24.9,31.9,26.5,52.3c1.5,20.4-4.9,40.2-18.3,55.7
		c-13.3,15.5-31.9,24.9-52.3,26.5c-42.1,3.2-79-28.5-82.2-70.6l-1-13c-2.2-28.6-15.3-54.6-37.1-73.3c-21.7-18.7-49.5-27.8-78-25.6
		c-28.6,2.2-54.6,15.3-73.3,37.1c-18.7,21.7-27.8,49.5-25.6,78c1.8,23.7,11.2,45.7,26.8,63.1L51,331.8l71.2-14.6
		c11.5,4.1,23.6,6.2,36,6.2c2.7,0,5.5-0.1,8.3-0.3c24.5-1.9,47.1-11.8,64.8-28.3c-3-4.2-5.8-8.7-8.4-13.2
		c-15,14.8-35,24.5-57.6,26.3c-50.6,3.8-94.8-34.1-98.6-84.7s34.1-94.8,84.7-98.6s94.8,34.1,98.6,84.7l1,13
		c3.8,50.6,48,88.6,98.6,84.7C400.3,303.1,438.2,258.9,434.4,208.3z"/>
	
		<linearGradient id="SVGID_4_" gradientUnits="userSpaceOnUse" x1="66.1266" y1="326.2153" x2="151.3684" y2="326.2153" gradientTransform="matrix(1 0 0 -1 0 500)">
		<stop  offset="0" style="stop-color:#000000;stop-opacity:0"/>
		<stop  offset="0.5801" style="stop-color:#FFFFFF"/>
		<stop  offset="1" style="stop-color:#000000;stop-opacity:0"/>
	</linearGradient>
	<path class="st4" d="M66.6,223.1c-4.7-43.7,24.3-85.1,66.9-96c3-0.6,5.9-1.2,8.9-1.8l9-0.9c-12,1.4-23.6,4.8-34.2,10.3
		C84.9,151.2,64.7,187,66.6,223.1L66.6,223.1z"/>
	
		<linearGradient id="SVGID_5_" gradientUnits="userSpaceOnUse" x1="249.9739" y1="247.807" x2="297.1732" y2="247.807" gradientTransform="matrix(1 0 0 -1 0 500)">
		<stop  offset="2.770450e-07" style="stop-color:#000000;stop-opacity:0"/>
		<stop  offset="0.5801" style="stop-color:#FFFFFF"/>
		<stop  offset="1" style="stop-color:#000000;stop-opacity:0"/>
	</linearGradient>
	<path class="st5" d="M250,209.2c1.1,8.5,1.6,17.1,3.6,25.4c4.8,20.7,16.7,39.7,33.2,53c3.2,2.8,6.8,5.2,10.4,7.6
		c-3.8-2-7.5-4.2-11-6.8C260,269.1,249.4,241.1,250,209.2L250,209.2z"/>
	
		<linearGradient id="SVGID_6_" gradientUnits="userSpaceOnUse" x1="278.1656" y1="363.3368" x2="335.731" y2="363.3368" gradientTransform="matrix(1 0 0 -1 0 500)">
		<stop  offset="0" style="stop-color:#000000;stop-opacity:0"/>
		<stop  offset="0.5801" style="stop-color:#FFFFFF"/>
		<stop  offset="0.9927" style="stop-color:#000000;stop-opacity:0"/>
	</linearGradient>
	<path class="st6" d="M335.7,123.6c-18.5,2.7-36.4,9.8-51.3,21.2c-1.9,1.4-4.5,3.5-6.3,5C292.5,133.5,314,123.7,335.7,123.6
		L335.7,123.6z"/>
</g>
</svg>
