<?xml version="1.0" encoding="utf-8"?>
<!-- Generator: Adobe Illustrator 25.3.1, SVG Export Plug-In . SVG Version: 6.00 Build 0)  -->
<svg version="1.1" id="OBJECTS" xmlns="http://www.w3.org/2000/svg" xmlns:xlink="http://www.w3.org/1999/xlink" x="0px" y="0px"
	 viewBox="0 0 500 500" style="enable-background:new 0 0 500 500;" xml:space="preserve">
<style type="text/css">
	.st0{fill:url(#SVGID_1_);}
	.st1{fill:url(#SVGID_2_);}
	.st2{fill:url(#SVGID_3_);}
	.st3{opacity:0.66;fill:url(#SVGID_4_);enable-background:new    ;}
	.st4{opacity:0.66;fill:url(#SVGID_5_);enable-background:new    ;}
	.st5{opacity:0.66;fill:url(#SVGID_6_);enable-background:new    ;}
</style>
<g>
	<g>
		<path d="M90,364.6H76.2v-12.4h43.7v12.4H106v34.9H90V364.6z"/>
		<path d="M153.8,391.3h-18l-3.2,8.2h-16.2l20.7-47.3h15.7l20.7,47.3H157L153.8,391.3z M149.4,379.8l-4.6-11.9l-4.6,11.9H149.4z"/>
		<path d="M176,352.2H192v34.9h21.4v12.4H176V352.2z"/>
		<path d="M237,383.8l-3.6,4v11.7h-15.7v-47.3h15.7v17.2l15.5-17.2h17.4L247.4,373l19.9,26.5h-18.4L237,383.8z"/>
		<path d="M316,352.2v47.3h-15.9v-17.4h-14.7v17.4h-16v-47.3h16V369h14.7v-16.8H316z"/>
		<path d="M329.4,394.7c-4-3.9-6.1-9.4-6.1-16.5v-26h16v25.5c0,3.5,0.6,6,1.9,7.6c1.2,1.6,3,2.4,5.4,2.4s4.1-0.8,5.4-2.4
			s1.9-4.1,1.9-7.6v-25.5h15.7v26c0,7.1-2,12.6-6.1,16.5c-4,3.9-9.7,5.9-17,5.9C339.1,400.6,333.5,398.6,329.4,394.7z"/>
		<path d="M421.1,379.3c1.5,2,2.3,4.4,2.3,7.2c0,4.1-1.7,7.4-5.1,9.6c-3.4,2.3-8.4,3.4-14.9,3.4h-26.6v-47.3H402
			c6.3,0,11.1,1.1,14.3,3.4s4.8,5.2,4.8,9c0,2.2-0.5,4.2-1.7,6c-1.1,1.8-2.7,3.2-4.9,4.3C417.4,375.8,419.5,377.3,421.1,379.3z
			 M392.4,363.4v7h7.4c3.5,0,5.2-1.2,5.2-3.5s-1.7-3.5-5.2-3.5L392.4,363.4L392.4,363.4z M407.3,384.6c0-2.5-1.8-3.7-5.3-3.7h-9.6
			v7.4h9.6C405.5,388.4,407.3,387.1,407.3,384.6z"/>
	</g>
</g>
<g>
	
		<linearGradient id="SVGID_1_" gradientUnits="userSpaceOnUse" x1="51.5041" y1="286.5208" x2="450.4959" y2="286.5208" gradientTransform="matrix(1 0 0 -1 0 500)">
		<stop  offset="0" style="stop-color:#FF00CC"/>
		<stop  offset="0.9987" style="stop-color:#4E00BB"/>
	</linearGradient>
	<path class="st0" d="M450.2,204.9c-2.2-28.6-15.3-54.6-37.1-73.3c-21.7-18.7-49.4-27.8-78-25.6c-24.5,1.9-47.1,11.8-64.8,28.3
		c6.3,8.7,11.4,18.2,15.4,28.1c13.3-15.1,31.6-24.2,51.6-25.7c20.4-1.5,40.2,4.9,55.7,18.3s24.9,31.9,26.5,52.3
		c1.5,20.4-4.9,40.2-18.3,55.7c-13.3,15.5-31.9,24.9-52.3,26.5c-42.1,3.2-79-28.5-82.2-70.6l-1-13c-2.2-28.6-15.3-54.6-37.1-73.3
		s-49.5-27.8-78-25.6c-28.6,2.2-54.6,15.3-73.3,37.1c-18.7,21.7-27.8,49.5-25.6,78s15.3,54.6,37.1,73.3
		c19.6,16.9,44.1,25.9,69.8,25.9c2.7,0,5.5-0.1,8.3-0.3c24.5-1.9,47.1-11.8,64.8-28.3c-6.2-8.6-11.4-18-15.5-28.1
		c-13.3,15.1-31.6,24.2-51.7,25.8c-20.4,1.5-40.2-4.9-55.7-18.3c-15.5-13.3-24.9-31.9-26.5-52.3c-1.5-20.4,4.9-40.2,18.3-55.7
		s31.9-24.9,52.3-26.5s40.2,4.9,55.7,18.3s24.9,31.9,26.5,52.3l1,13c4.3,56.3,51.4,99.2,106.9,99.2c2.7,0,5.4-0.1,8.2-0.3
		c28.6-2.2,54.6-15.3,73.3-37.1C443.3,261.2,452.4,233.5,450.2,204.9z"/>
	
		<linearGradient id="SVGID_2_" gradientUnits="userSpaceOnUse" x1="51.5" y1="282.3394" x2="450.5" y2="282.3394" gradientTransform="matrix(1 0 0 -1 0 500)">
		<stop  offset="2.770450e-07" style="stop-color:#D900CC"/>
		<stop  offset="0.9987" style="stop-color:#4E00BB"/>
	</linearGradient>
	<path class="st1" d="M424.6,283c18.7-21.7,27.8-49.5,25.6-78s-15.3-54.6-37.1-73.3c-21.7-18.7-49.4-27.8-78-25.6
		c-24.5,1.9-47.1,11.8-64.8,28.3c6.3,8.7,11.4,18.2,15.4,28.1c13.3-15.1,31.6-24.2,51.6-25.7c20.4-1.5,40.2,4.9,55.7,18.3
		s24.9,31.9,26.5,52.3c1.5,20.4-4.9,40.2-18.3,55.7c-13.3,15.5-31.9,24.9-52.3,26.5c-42.1,3.2-79-28.5-82.2-70.6l-1-13
		c-2.2-28.6-15.3-54.6-37.1-73.3s-49.5-27.8-78-25.6c-28.6,2.2-54.6,15.3-73.3,37.1c-18.7,21.7-27.8,49.5-25.6,78
		c1.8,23.7,11.2,45.7,26.8,63.1l-27.1,44.4l71.2-14.6c11.5,4.1,23.6,6.2,36,6.2c2.7,0,5.5-0.1,8.3-0.3c24.5-1.9,47.1-11.8,64.8-28.3
		c-6.2-8.6-11.4-18-15.5-28.1c-13.3,15.1-31.6,24.2-51.7,25.8c-20.4,1.5-40.2-4.9-55.7-18.3c-15.5-13.3-24.9-31.9-26.5-52.3
		c-1.5-20.4,4.9-40.2,18.3-55.7s31.9-24.9,52.3-26.5c20.4-1.5,40.2,4.9,55.7,18.3s24.9,31.9,26.5,52.3l1,13
		c4.3,56.3,51.4,99.2,106.9,99.2c2.7,0,5.4-0.1,8.2-0.3c9.3-0.7,18.3-2.6,26.8-5.5l72.4,15.1l-27.2-45.2
		C423.7,283.9,424.2,283.4,424.6,283z"/>
	
		<linearGradient id="SVGID_3_" gradientUnits="userSpaceOnUse" x1="51.5" y1="281.9005" x2="435.1422" y2="281.9005" gradientTransform="matrix(1 0 0 -1 0 500)">
		<stop  offset="2.770450e-07" style="stop-color:#FF4FCC"/>
		<stop  offset="0.9987" style="stop-color:#32007F"/>
	</linearGradient>
	<path class="st2" d="M434.9,206.1c-3.8-50.6-48-88.6-98.6-84.7c-22.6,1.7-42.6,11.5-57.6,26.2c2.6,4.8,5,9.8,7.1,14.8
		c13.3-15.1,31.6-24.2,51.6-25.7c20.4-1.5,40.2,4.9,55.7,18.3c15.5,13.3,24.9,31.9,26.5,52.3c1.5,20.4-4.9,40.2-18.3,55.7
		c-13.3,15.5-31.9,24.9-52.3,26.5c-42.1,3.2-79-28.5-82.2-70.6l-1-13c-2.2-28.6-15.3-54.6-37.1-73.3c-21.7-18.7-49.5-27.8-78-25.6
		c-28.6,2.2-54.6,15.3-73.3,37.1c-18.7,21.7-27.8,49.5-25.6,78c1.8,23.7,11.2,45.7,26.8,63.1l-27.1,44.4l71.2-14.6
		c11.5,4.1,23.6,6.2,36,6.2c2.7,0,5.5-0.1,8.3-0.3c24.5-1.9,47.1-11.8,64.8-28.3c-3-4.2-5.8-8.7-8.4-13.2
		c-15,14.8-35,24.5-57.6,26.3c-50.6,3.8-94.8-34.1-98.6-84.7s34.1-94.8,84.7-98.6s94.8,34.1,98.6,84.7l1,13
		c3.8,50.6,48,88.6,98.6,84.7C400.8,300.9,438.7,256.7,434.9,206.1z"/>
	
		<linearGradient id="SVGID_4_" gradientUnits="userSpaceOnUse" x1="66.6266" y1="328.4401" x2="151.8684" y2="328.4401" gradientTransform="matrix(1 0 0 -1 0 500)">
		<stop  offset="0" style="stop-color:#000000;stop-opacity:0"/>
		<stop  offset="0.5801" style="stop-color:#FFFFFF"/>
		<stop  offset="1" style="stop-color:#000000;stop-opacity:0"/>
	</linearGradient>
	<path class="st3" d="M67.1,220.9c-4.7-43.7,24.3-85.1,66.9-96c3-0.6,5.9-1.2,8.9-1.8l9-0.9c-12,1.4-23.6,4.8-34.2,10.3
		C85.4,149,65.2,184.8,67.1,220.9L67.1,220.9z"/>
	
		<linearGradient id="SVGID_5_" gradientUnits="userSpaceOnUse" x1="250.4739" y1="250.0317" x2="297.6732" y2="250.0317" gradientTransform="matrix(1 0 0 -1 0 500)">
		<stop  offset="2.770450e-07" style="stop-color:#000000;stop-opacity:0"/>
		<stop  offset="0.5801" style="stop-color:#FFFFFF"/>
		<stop  offset="1" style="stop-color:#000000;stop-opacity:0"/>
	</linearGradient>
	<path class="st4" d="M250.5,207c1.1,8.5,1.6,17.1,3.6,25.4c4.8,20.7,16.7,39.7,33.2,53c3.2,2.8,6.8,5.2,10.4,7.6
		c-3.8-2-7.5-4.2-11-6.8C260.5,266.9,249.9,238.8,250.5,207L250.5,207z"/>
	
		<linearGradient id="SVGID_6_" gradientUnits="userSpaceOnUse" x1="278.6656" y1="365.5616" x2="336.231" y2="365.5616" gradientTransform="matrix(1 0 0 -1 0 500)">
		<stop  offset="0" style="stop-color:#000000;stop-opacity:0"/>
		<stop  offset="0.5801" style="stop-color:#FFFFFF"/>
		<stop  offset="0.9927" style="stop-color:#000000;stop-opacity:0"/>
	</linearGradient>
	<path class="st5" d="M336.2,121.3c-18.5,2.7-36.4,9.8-51.3,21.2c-1.9,1.4-4.5,3.5-6.3,5C293,131.3,314.5,121.4,336.2,121.3
		L336.2,121.3z"/>
</g>
</svg>
