<?xml version="1.0" encoding="utf-8"?>
<!-- Generator: Adobe Illustrator 25.3.1, SVG Export Plug-In . SVG Version: 6.00 Build 0)  -->
<svg version="1.1" id="OBJECTS" xmlns="http://www.w3.org/2000/svg" xmlns:xlink="http://www.w3.org/1999/xlink" x="0px" y="0px"
	 viewBox="0 0 322.3 231.3" style="enable-background:new 0 0 322.3 231.3;" xml:space="preserve">
<style type="text/css">
	.st0{fill:url(#SVGID_1_);}
	.st1{fill:url(#SVGID_2_);}
	.st2{fill:url(#SVGID_3_);}
	.st3{opacity:0.66;fill:url(#SVGID_4_);enable-background:new    ;}
	.st4{opacity:0.66;fill:url(#SVGID_5_);enable-background:new    ;}
	.st5{opacity:0.66;fill:url(#SVGID_6_);enable-background:new    ;}
</style>
<g>
	
		<linearGradient id="SVGID_1_" gradientUnits="userSpaceOnUse" x1="40.3462" y1="118.8723" x2="281.9838" y2="118.8723" gradientTransform="matrix(1 0 0 -1 0 232)">
		<stop  offset="0" style="stop-color:#FF00CC"/>
		<stop  offset="0.9987" style="stop-color:#4E00BB"/>
	</linearGradient>
	<path class="st0" d="M281.8,107.9c-1.3-17.3-9.3-33.1-22.5-44.4c-13.2-11.3-29.9-16.8-47.3-15.5c-14.8,1.1-28.5,7.1-39.2,17.1
		c3.8,5.3,6.9,11,9.4,17c8-9.1,19.1-14.7,31.3-15.6c12.4-0.9,24.3,3,33.7,11.1c9.4,8.1,15.1,19.3,16,31.7c0.9,12.4-3,24.3-11.1,33.7
		c-8.1,9.4-19.3,15.1-31.7,16c-25.5,1.9-47.8-17.2-49.8-42.7l-0.6-7.9c-1.3-17.3-9.3-33.1-22.5-44.4c-13.2-11.3-30-16.8-47.3-15.5
		C83.1,49.9,67.3,57.9,56,71c-11.3,13.2-16.8,30-15.5,47.3s9.3,33.1,22.5,44.4c11.9,10.2,26.7,15.7,42.2,15.7c1.7,0,3.3-0.1,5-0.2
		c14.8-1.1,28.5-7.2,39.3-17.1c-3.8-5.2-6.9-10.9-9.4-17c-8,9.1-19.1,14.7-31.3,15.6c-12.4,0.9-24.3-3-33.7-11.1
		c-9.4-8.1-15.1-19.3-16-31.7c-0.9-12.4,3-24.3,11.1-33.7s19.3-15.1,31.7-16s24.3,3,33.7,11.1s15.1,19.3,16,31.7l0.6,7.9
		c2.6,34.1,31.1,60.1,64.8,60.1c1.6,0,3.3-0.1,5-0.2c17.3-1.3,33.1-9.3,44.4-22.5C277.6,142,283.1,125.3,281.8,107.9z"/>
	
		<linearGradient id="SVGID_2_" gradientUnits="userSpaceOnUse" x1="40.3437" y1="116.34" x2="281.9862" y2="116.34" gradientTransform="matrix(1 0 0 -1 0 232)">
		<stop  offset="2.770450e-07" style="stop-color:#D900CC"/>
		<stop  offset="0.9987" style="stop-color:#4E00BB"/>
	</linearGradient>
	<path class="st1" d="M266.3,155.2c11.3-13.2,16.8-30,15.5-47.3c-1.3-17.3-9.3-33.1-22.5-44.4c-13.2-11.3-29.9-16.8-47.3-15.5
		c-14.8,1.1-28.5,7.1-39.2,17.1c3.8,5.3,6.9,11,9.4,17c8-9.1,19.1-14.7,31.3-15.6c12.4-0.9,24.3,3,33.7,11.1
		c9.4,8.1,15.1,19.3,16,31.7c0.9,12.4-3,24.3-11.1,33.7c-8.1,9.4-19.3,15.1-31.7,16c-25.5,1.9-47.8-17.2-49.8-42.7l-0.6-7.9
		c-1.3-17.3-9.3-33.1-22.5-44.4c-13.2-11.3-30-16.8-47.3-15.5C83.1,49.9,67.3,57.9,56,71c-11.3,13.2-16.8,30-15.5,47.3
		c1.1,14.4,6.8,27.7,16.2,38.2l-16.4,26.9l43.1-8.8c6.9,2.5,14.3,3.8,21.8,3.8c1.7,0,3.3-0.1,5-0.2c14.8-1.1,28.5-7.2,39.3-17.2
		c-3.8-5.2-6.9-10.9-9.4-17c-8,9.1-19.1,14.7-31.3,15.6c-12.4,0.9-24.3-3-33.7-11.1c-9.4-8.1-15.1-19.3-16-31.7
		c-0.9-12.4,3-24.3,11.1-33.7s19.3-15.1,31.7-16s24.3,3,33.7,11.1s15.1,19.3,16,31.7l0.6,7.9c2.6,34.1,31.1,60.1,64.8,60.1
		c1.6,0,3.3-0.1,5-0.2c5.6-0.4,11.1-1.6,16.2-3.3l43.8,9.1l-16.5-27.4C265.8,155.8,266,155.5,266.3,155.2z"/>
	
		<linearGradient id="SVGID_3_" gradientUnits="userSpaceOnUse" x1="40.3437" y1="116.0742" x2="272.6852" y2="116.0742" gradientTransform="matrix(1 0 0 -1 0 232)">
		<stop  offset="2.770450e-07" style="stop-color:#FF4FCC"/>
		<stop  offset="0.9987" style="stop-color:#32007F"/>
	</linearGradient>
	<path class="st2" d="M272.5,108.6C270.2,78,243.5,55,212.8,57.3c-13.7,1-25.8,6.9-34.9,15.9c1.6,2.9,3,5.9,4.3,9
		c8-9.1,19.1-14.7,31.3-15.6c12.4-0.9,24.3,3,33.7,11.1c9.4,8.1,15.1,19.3,16,31.7c0.9,12.4-3,24.3-11.1,33.7
		c-8.1,9.4-19.3,15.1-31.7,16c-25.5,1.9-47.8-17.2-49.8-42.7l-0.6-7.9c-1.3-17.3-9.3-33.1-22.5-44.4c-13.2-11.3-30-16.8-47.3-15.5
		C83.1,49.9,67.3,57.9,56,71c-11.3,13.2-16.8,30-15.5,47.3c1.1,14.4,6.8,27.7,16.2,38.2l-16.4,26.9l43.1-8.8
		c6.9,2.5,14.3,3.8,21.8,3.8c1.7,0,3.3-0.1,5-0.2c14.8-1.1,28.5-7.2,39.3-17.2c-1.8-2.6-3.5-5.2-5.1-8c-9.1,9-21.2,14.9-34.9,15.9
		c-30.7,2.3-57.4-20.7-59.7-51.3s20.7-57.4,51.3-59.7c30.7-2.3,57.4,20.7,59.7,51.3l0.6,7.9c2.3,30.7,29.1,53.6,59.7,51.3
		C251.9,166.1,274.8,139.3,272.5,108.6z"/>
	
		<linearGradient id="SVGID_4_" gradientUnits="userSpaceOnUse" x1="49.5047" y1="144.2595" x2="101.1289" y2="144.2595" gradientTransform="matrix(1 0 0 -1 0 232)">
		<stop  offset="0" style="stop-color:#000000;stop-opacity:0"/>
		<stop  offset="0.5801" style="stop-color:#FFFFFF"/>
		<stop  offset="1" style="stop-color:#000000;stop-opacity:0"/>
	</linearGradient>
	<path class="st3" d="M49.8,117.6C47,91.1,64.5,66.1,90.3,59.5c1.8-0.4,3.6-0.8,5.4-1.1l5.5-0.5c-7.2,0.8-14.3,2.9-20.7,6.3
		C60.9,74.1,48.6,95.8,49.8,117.6L49.8,117.6z"/>
	
		<linearGradient id="SVGID_5_" gradientUnits="userSpaceOnUse" x1="160.8464" y1="96.7738" x2="189.4312" y2="96.7738" gradientTransform="matrix(1 0 0 -1 0 232)">
		<stop  offset="2.770450e-07" style="stop-color:#000000;stop-opacity:0"/>
		<stop  offset="0.5801" style="stop-color:#FFFFFF"/>
		<stop  offset="1" style="stop-color:#000000;stop-opacity:0"/>
	</linearGradient>
	<path class="st4" d="M160.9,109.2c0.7,5.1,1,10.3,2.2,15.4c2.9,12.6,10.1,24,20.1,32.1c2,1.7,4.1,3.1,6.3,4.6
		c-2.3-1.2-4.5-2.6-6.6-4.1C166.9,145.5,160.5,128.5,160.9,109.2L160.9,109.2z"/>
	
		<linearGradient id="SVGID_6_" gradientUnits="userSpaceOnUse" x1="177.9198" y1="166.741" x2="212.7826" y2="166.741" gradientTransform="matrix(1 0 0 -1 0 232)">
		<stop  offset="0" style="stop-color:#000000;stop-opacity:0"/>
		<stop  offset="0.5801" style="stop-color:#FFFFFF"/>
		<stop  offset="0.9927" style="stop-color:#000000;stop-opacity:0"/>
	</linearGradient>
	<path class="st5" d="M212.8,57.3c-11.2,1.6-22,5.9-31,12.8c-1.1,0.9-2.7,2.1-3.8,3C186.6,63.3,199.6,57.4,212.8,57.3L212.8,57.3z"
		/>
</g>
</svg>
