<?xml version="1.0" encoding="utf-8"?>
<!-- Generator: Adobe Illustrator 25.3.1, SVG Export Plug-In . SVG Version: 6.00 Build 0)  -->
<svg version="1.1" id="OBJECTS" xmlns="http://www.w3.org/2000/svg" xmlns:xlink="http://www.w3.org/1999/xlink" x="0px" y="0px"
	 viewBox="0 0 674 170.6" style="enable-background:new 0 0 674 170.6;" xml:space="preserve">
<style type="text/css">
	.st0{fill:#FF00CC;}
	.st1{fill:url(#SVGID_1_);}
	.st2{fill:url(#SVGID_2_);}
	.st3{fill:url(#SVGID_3_);}
	.st4{opacity:0.66;fill:url(#SVGID_4_);enable-background:new    ;}
	.st5{opacity:0.66;fill:url(#SVGID_5_);enable-background:new    ;}
	.st6{opacity:0.66;fill:url(#SVGID_6_);enable-background:new    ;}
</style>
<g>
	<g>
		<path class="st0" d="M265.2,76.9h-14.6v-13h46v13h-14.6v36.9h-16.8L265.2,76.9L265.2,76.9z"/>
		<path class="st0" d="M332.5,105.1h-19l-3.4,8.7h-17.1l21.8-49.9h16.5l21.8,49.9h-17.4L332.5,105.1z M327.9,92.9L323,80.4
			l-4.9,12.6H327.9z"/>
		<path class="st0" d="M356,63.8h16.8v36.9h22.5v13.1H356L356,63.8L356,63.8z"/>
		<path class="st0" d="M420.3,97.2l-3.8,4.2v12.3H400V63.8h16.5v18.1l16.4-18.1h18.3l-20,22l21,27.9h-19.5L420.3,97.2z"/>
		<path class="st0" d="M503.7,63.8v49.9h-16.8V95.4h-15.5v18.4h-16.8V63.8h16.8v17.7h15.5V63.8H503.7z"/>
		<path class="st0" d="M517.8,108.7c-4.3-4.1-6.4-9.9-6.4-17.4V63.8h16.8v27c0,3.7,0.7,6.3,2,8s3.2,2.5,5.7,2.5s4.4-0.8,5.7-2.5
			c1.3-1.7,2-4.3,2-8v-27H560v27.5c0,7.5-2.1,13.3-6.4,17.4c-4.3,4.1-10.2,6.2-17.9,6.2C528.1,114.9,522.1,112.8,517.8,108.7z"/>
		<path class="st0" d="M614.5,92.4c1.6,2.1,2.4,4.6,2.4,7.6c0,4.4-1.8,7.8-5.4,10.2c-3.6,2.4-8.8,3.6-15.7,3.6h-28.1V63.8h26.7
			c6.7,0,11.7,1.2,15.1,3.6c3.4,2.4,5.1,5.5,5.1,9.5c0,2.3-0.6,4.4-1.8,6.3s-2.9,3.3-5.2,4.5C610.6,88.8,612.9,90.3,614.5,92.4z
			 M584.3,75.6V83h7.8c3.7,0,5.5-1.2,5.5-3.7s-1.8-3.7-5.5-3.7L584.3,75.6L584.3,75.6z M600,98.1c0-2.6-1.8-3.9-5.6-3.9h-10.1v7.8
			h10.1C598.1,102,600,100.7,600,98.1z"/>
	</g>
</g>
<g>
	
		<linearGradient id="SVGID_1_" gradientUnits="userSpaceOnUse" x1="53.3909" y1="82.3718" x2="219.1157" y2="82.3718" gradientTransform="matrix(1 0 0 -1 0 170)">
		<stop  offset="0" style="stop-color:#FF00CC"/>
		<stop  offset="0.9987" style="stop-color:#4E00BB"/>
	</linearGradient>
	<path class="st1" d="M219,84.1c-0.9-11.9-6.4-22.7-15.4-30.4c-9-7.8-20.5-11.5-32.4-10.6c-10.2,0.8-19.5,4.9-26.9,11.7
		c2.6,3.6,4.7,7.5,6.4,11.7c5.5-6.3,13.1-10.1,21.5-10.7c8.5-0.6,16.7,2.1,23.1,7.6s10.3,13.3,11,21.7c0.6,8.5-2.1,16.7-7.6,23.1
		c-5.5,6.4-13.3,10.3-21.7,11c-17.5,1.3-32.8-11.8-34.1-29.3l-0.4-5.4C141.5,72.6,136,61.8,127,54s-20.5-11.5-32.4-10.6
		c-11.9,0.9-22.7,6.4-30.4,15.4c-7.8,9-11.5,20.5-10.6,32.4c0.9,11.9,6.4,22.7,15.4,30.4c8.2,7,18.3,10.8,29,10.8
		c1.1,0,2.3,0,3.4-0.1c10.2-0.8,19.6-4.9,26.9-11.8c-2.6-3.6-4.7-7.5-6.4-11.7c-5.5,6.3-13.1,10.1-21.5,10.7
		c-8.5,0.6-16.7-2.1-23.1-7.6c-6.4-5.5-10.3-13.3-11-21.7c-0.6-8.5,2.1-16.7,7.6-23.1c5.5-6.4,13.3-10.3,21.7-11s16.7,2.1,23.1,7.6
		c6.4,5.5,10.3,13.3,11,21.7l0.4,5.4c1.8,23.4,21.4,41.2,44.4,41.2c1.1,0,2.3,0,3.4-0.1c11.9-0.9,22.7-6.4,30.4-15.4
		C216.1,107.5,219.9,95.9,219,84.1z"/>
	
		<linearGradient id="SVGID_2_" gradientUnits="userSpaceOnUse" x1="53.3892" y1="80.635" x2="219.1174" y2="80.635" gradientTransform="matrix(1 0 0 -1 0 170)">
		<stop  offset="2.770450e-07" style="stop-color:#D900CC"/>
		<stop  offset="0.9987" style="stop-color:#4E00BB"/>
	</linearGradient>
	<path class="st2" d="M208.4,116.5c7.8-9,11.5-20.5,10.6-32.4c-0.9-11.9-6.4-22.7-15.4-30.4c-9-7.8-20.5-11.5-32.4-10.6
		c-10.2,0.8-19.5,4.9-26.9,11.7c2.6,3.6,4.7,7.5,6.4,11.7c5.5-6.3,13.1-10.1,21.5-10.7c8.5-0.6,16.7,2.1,23.1,7.6s10.3,13.3,11,21.7
		c0.6,8.5-2.1,16.7-7.6,23.1c-5.5,6.4-13.3,10.3-21.7,11c-17.5,1.3-32.8-11.8-34.1-29.3l-0.4-5.4C141.5,72.6,136,61.8,127,54
		s-20.5-11.5-32.4-10.6c-11.9,0.9-22.7,6.4-30.4,15.4c-7.8,9-11.5,20.5-10.6,32.4c0.7,9.9,4.7,19,11.1,26.2l-11.2,18.4l29.6-6.1
		c4.8,1.7,9.8,2.6,14.9,2.6c1.1,0,2.3,0,3.4-0.1c10.2-0.8,19.6-4.9,26.9-11.8c-2.6-3.6-4.7-7.5-6.4-11.7
		c-5.5,6.3-13.1,10.1-21.5,10.7c-8.5,0.6-16.7-2.1-23.1-7.6c-6.4-5.5-10.3-13.3-11-21.7c-0.6-8.5,2.1-16.7,7.6-23.1
		c5.5-6.4,13.3-10.3,21.7-11s16.7,2.1,23.1,7.6c6.4,5.5,10.3,13.3,11,21.7l0.4,5.4c1.8,23.4,21.4,41.2,44.4,41.2
		c1.1,0,2.3,0,3.4-0.1c3.9-0.3,7.6-1.1,11.1-2.3l30.1,6.3l-11.3-18.8C208,116.9,208.2,116.7,208.4,116.5z"/>
	
		<linearGradient id="SVGID_3_" gradientUnits="userSpaceOnUse" x1="53.3892" y1="80.4527" x2="212.7384" y2="80.4527" gradientTransform="matrix(1 0 0 -1 0 170)">
		<stop  offset="2.770450e-07" style="stop-color:#FF4FCC"/>
		<stop  offset="0.9987" style="stop-color:#32007F"/>
	</linearGradient>
	<path class="st3" d="M212.6,84.6c-1.6-21-19.9-36.8-41-35.2c-9.4,0.7-17.7,4.8-23.9,10.9c1.1,2,2.1,4.1,2.9,6.2
		c5.5-6.3,13.1-10.1,21.5-10.7c8.5-0.6,16.7,2.1,23.1,7.6c6.4,5.5,10.3,13.3,11,21.7c0.6,8.5-2.1,16.7-7.6,23.1
		c-5.5,6.4-13.3,10.3-21.7,11c-17.5,1.3-32.8-11.8-34.1-29.3l-0.4-5.4C141.5,72.6,136,61.8,127,54s-20.5-11.5-32.4-10.6
		c-11.9,0.9-22.7,6.4-30.4,15.4c-7.8,9-11.5,20.5-10.6,32.4c0.7,9.9,4.7,19,11.1,26.2l-11.2,18.4l29.6-6.1c4.8,1.7,9.8,2.6,14.9,2.6
		c1.1,0,2.3,0,3.4-0.1c10.2-0.8,19.6-4.9,26.9-11.8c-1.3-1.8-2.4-3.6-3.5-5.5c-6.2,6.1-14.5,10.2-23.9,10.9
		c-21,1.6-39.4-14.2-41-35.2c-1.6-21,14.2-39.4,35.2-41c21-1.6,39.4,14.2,41,35.2l0.4,5.4c1.6,21,19.9,36.8,41,35.2
		C198.5,123.9,214.2,105.6,212.6,84.6z"/>
	
		<linearGradient id="SVGID_4_" gradientUnits="userSpaceOnUse" x1="59.6722" y1="99.7833" x2="95.0781" y2="99.7833" gradientTransform="matrix(1 0 0 -1 0 170)">
		<stop  offset="0" style="stop-color:#000000;stop-opacity:0"/>
		<stop  offset="0.5801" style="stop-color:#FFFFFF"/>
		<stop  offset="1" style="stop-color:#000000;stop-opacity:0"/>
	</linearGradient>
	<path class="st4" d="M59.9,90.7C57.9,72.5,70,55.3,87.6,50.8c1.2-0.2,2.5-0.5,3.7-0.7l3.7-0.4c-5,0.6-9.8,2-14.2,4.3
		C67.5,60.8,59.1,75.7,59.9,90.7L59.9,90.7z"/>
	
		<linearGradient id="SVGID_5_" gradientUnits="userSpaceOnUse" x1="136.0348" y1="67.2157" x2="155.6394" y2="67.2157" gradientTransform="matrix(1 0 0 -1 0 170)">
		<stop  offset="2.770450e-07" style="stop-color:#000000;stop-opacity:0"/>
		<stop  offset="0.5801" style="stop-color:#FFFFFF"/>
		<stop  offset="1" style="stop-color:#000000;stop-opacity:0"/>
	</linearGradient>
	<path class="st5" d="M136,84.9c0.5,3.5,0.7,7.1,1.5,10.5c2,8.6,6.9,16.5,13.8,22c1.3,1.2,2.8,2.1,4.3,3.1c-1.6-0.8-3.1-1.8-4.6-2.8
		C140.2,109.8,135.8,98.2,136,84.9L136,84.9z"/>
	
		<linearGradient id="SVGID_6_" gradientUnits="userSpaceOnUse" x1="147.7444" y1="115.2021" x2="171.6548" y2="115.2021" gradientTransform="matrix(1 0 0 -1 0 170)">
		<stop  offset="0" style="stop-color:#000000;stop-opacity:0"/>
		<stop  offset="0.5801" style="stop-color:#FFFFFF"/>
		<stop  offset="0.9927" style="stop-color:#000000;stop-opacity:0"/>
	</linearGradient>
	<path class="st6" d="M171.7,49.4c-7.7,1.1-15.1,4.1-21.3,8.8c-0.8,0.6-1.9,1.5-2.6,2.1C153.7,53.5,162.6,49.4,171.7,49.4
		L171.7,49.4z"/>
</g>
</svg>
